<?xml version="1.0" encoding="UTF-8"?>
<svg width="273px" height="115px" viewBox="0 0 273 115" version="1.1" xmlns="http://www.w3.org/2000/svg" xmlns:xlink="http://www.w3.org/1999/xlink">
    <title>Git-logo</title>
    <g id="Page-1" stroke="none" stroke-width="1" fill="none" fill-rule="evenodd">
        <g id="Medium" transform="translate(-779.000000, -2233.000000)" fill="#F05133" fill-rule="nonzero">
            <g id="Git-logo" transform="translate(779.000000, 2233.000000)">
                <path d="M163.589875,38.8068 C157.604875,38.8068 153.147875,41.7457 153.147875,48.8188 C153.147875,54.1479 156.085375,57.8472 163.267875,57.8472 C169.355375,57.8472 173.489875,54.2603 173.489875,48.5987 C173.489875,42.1827 169.789875,38.8072 163.589875,38.8072 L163.589875,38.8068 Z M151.619875,88.7468 C150.203675,90.485 148.792375,92.3318 148.792375,94.5114 C148.792375,98.8596 154.337375,100.1682 161.954375,100.1682 C168.264375,100.1682 176.859375,99.72632 176.859375,93.8597 C176.859375,90.3728 172.724375,90.1569 167.499375,89.8293 L151.619375,88.7468 L151.619875,88.7468 Z M183.820875,39.1358 C185.775875,41.6387 187.845875,45.1206 187.845875,50.1248 C187.845875,62.1998 178.380875,69.2708 164.676875,69.2708 C161.191875,69.2708 158.036875,68.83668 156.080675,68.29368 L152.489475,74.05848 L163.149475,74.70973 C181.971475,75.90893 193.064475,76.45393 193.064475,90.91773 C193.064475,103.43173 182.079475,110.49873 163.149475,110.49873 C143.459475,110.49873 135.953475,105.49383 135.953475,96.90073 C135.953475,92.00323 138.129675,89.39823 141.937275,85.80273 C138.346075,84.28473 137.151075,81.56653 137.151075,78.62793 C137.151075,76.23293 138.346075,74.05773 140.307275,71.98933 C142.264775,69.92433 144.439775,67.85453 147.051075,65.46193 C141.721075,62.85153 137.694875,57.19433 137.694875,49.14293 C137.694875,36.63393 145.963675,28.04293 162.604875,28.04293 C167.283675,28.04293 170.113675,28.47355 172.615875,29.13033 L193.830875,29.13033 L193.830875,38.37493 L183.820875,39.13668" id="Shape"></path>
                <path d="M212.979875,19.3668 C206.777375,19.3668 203.188675,15.7736 203.188675,9.5704 C203.188675,3.375 206.777475,0 212.979875,0 C219.289875,0 222.879875,3.375 222.879875,9.5704 C222.879875,15.7735 219.289875,19.3668 212.979875,19.3668 Z M198.943875,84.7428 L198.943875,76.1529 L204.493875,75.39365 C206.017675,75.1729 206.233875,74.84915 206.233875,73.21345 L206.233875,41.23045 C206.233875,40.03625 205.908875,39.27145 204.817675,38.94765 L198.943875,36.87885 L200.140075,28.07025 L222.661075,28.07025 L222.661075,73.21425 C222.661075,74.95805 222.766075,75.17375 224.402275,75.39445 L229.951075,76.1537 L229.951075,84.7436 L198.943075,84.7436" id="Shape"></path>
                <path d="M272.970275,80.5268 C268.289875,82.8086 261.437875,84.8759 255.233875,84.8759 C242.288875,84.8759 237.394875,79.6591 237.394875,67.3609 L237.394875,38.8609 C237.394875,38.20952 237.394875,37.7725 236.521125,37.7725 L228.907325,37.7725 L228.907325,28.0909 C238.483525,27.0001 242.288325,22.2125 243.485325,10.3549 L253.821325,10.3549 L253.821325,25.8079 C253.821325,26.56665 253.821325,26.8953 254.692575,26.8953 L270.030575,26.8953 L270.030575,37.7723 L253.821575,37.7723 L253.821575,63.7713 C253.821575,70.1907 255.346575,72.6907 261.217775,72.6907 C264.267775,72.6907 267.418975,71.93145 270.030275,70.9515 L272.970275,80.5276" id="Path"></path>
                <path d="M111.779875,51.9778 L62.034875,2.2389 C59.172675,-0.6259 54.526675,-0.6259 51.660875,2.2389 L41.331875,12.5689 L54.433875,25.6709 C57.479775,24.6425 60.970975,25.33202 63.397775,27.7593 C65.837175,30.2017 66.521775,33.7227 65.467575,36.7788 L78.095575,49.4068 C81.150675,48.354 84.675575,49.03418 87.115075,51.478 C90.525675,54.8876 90.525675,60.4125 87.115075,63.823 C83.703975,67.2346 78.179075,67.2346 74.766075,63.823 C72.201575,61.2565 71.567275,57.4885 72.866175,54.3288 L61.089175,42.5518 L61.088175,73.5428 C61.919675,73.95442 62.704375,74.5038 63.397275,75.1937 C66.806875,78.6029 66.806875,84.1268 63.397275,87.5417 C59.986675,90.9508 54.459275,90.9508 51.052275,87.5417 C47.642175,84.1271 47.642175,78.6032 51.052275,75.1937 C51.895025,74.35245 52.870175,73.7157 53.910675,73.2889 L53.910675,42.0099 C52.869675,41.5849 51.895675,40.9529 51.051675,40.1049 C48.468675,37.5239 47.846575,33.7329 49.171275,30.561 L36.255275,17.643 L2.149275,51.748 C-0.716425,54.615 -0.716425,59.261 2.149275,62.126 L51.891275,111.865 C54.755075,114.7298 59.399475,114.7298 62.267275,111.865 L111.779275,62.361 C114.644075,59.4948 114.644075,54.8474 111.779275,51.982" id="Path"></path>
            </g>
        </g>
    </g>
</svg>