<?xml version="1.0" encoding="UTF-8"?>
<svg width="291px" height="541px" viewBox="0 0 291 541" version="1.1" xmlns="http://www.w3.org/2000/svg" xmlns:xlink="http://www.w3.org/1999/xlink">
    <title>java-4-logo-svgrepo-com</title>
    <g id="Page-1" stroke="none" stroke-width="1" fill="none" fill-rule="evenodd">
        <g id="java-4-logo-svgrepo-com" fill-rule="nonzero">
            <path d="M278.577,426.546 L276.54,426.546 L276.54,425.406 L282.026,425.406 L282.026,426.546 L280.001,426.546 L280.001,432.234 L278.577,432.234 L278.577,426.546 L278.577,426.546 Z M289.519,426.843 L289.487,426.843 L287.467,432.236 L286.543,432.236 L284.537,426.843 L284.513,426.843 L284.513,432.236 L283.17,432.236 L283.17,425.408 L285.146,425.408 L287.006,430.243 L288.86,425.408 L290.829,425.408 L290.829,432.236 L289.518,432.236 L289.519,426.843 L289.519,426.843 Z" id="Shape" fill="#E76F00"></path>
            <path d="M96.154,286.925 C96.154,286.925 81.976,295.17 106.244,297.96 C135.644,301.314 150.67,300.833 183.069,294.701 C183.069,294.701 191.587,300.042 203.483,304.668 C130.853,335.796 39.107,302.865 96.154,286.925 M87.279,246.305 C87.279,246.305 71.377,258.076 95.663,260.588 C127.069,263.828 151.871,264.093 194.788,255.829 C194.788,255.829 200.725,261.847 210.059,265.138 C122.244,290.816 24.435,267.163 87.279,246.305" id="Shape" fill="#5382A1"></path>
            <path d="M162.098,177.4 C179.994,198.004 157.397,216.546 157.397,216.546 C157.397,216.546 202.836,193.088 181.968,163.713 C162.477,136.318 147.53,122.708 228.447,75.779 C228.448,75.779 101.434,107.5 162.098,177.4" id="Path" fill="#E76F00"></path>
            <path d="M258.157,316.97 C258.157,316.97 268.649,325.616 246.602,332.303 C204.679,345.003 72.114,348.838 35.288,332.81 C22.05,327.05 46.875,319.058 54.684,317.381 C62.828,315.615 67.482,315.944 67.482,315.944 C52.76,305.573 -27.675,336.307 26.625,345.11 C174.709,369.125 296.569,334.296 258.157,316.97 M102.972,204.218 C102.972,204.218 35.541,220.234 79.093,226.05 C97.482,228.512 134.14,227.955 168.285,225.094 C196.191,222.74 224.213,217.736 224.213,217.736 C224.213,217.736 214.373,221.95 207.254,226.81 C138.779,244.82 6.498,236.441 44.58,218.02 C76.786,202.452 102.972,204.218 102.972,204.218 M223.935,271.832 C293.543,235.661 261.36,200.9 238.895,205.584 C233.389,206.73 230.934,207.723 230.934,207.723 C230.934,207.723 232.979,204.521 236.881,203.135 C281.322,187.511 315.5,249.216 222.535,273.656 C222.535,273.656 223.614,272.694 223.935,271.832" id="Shape" fill="#5382A1"></path>
            <path d="M181.968,0 C181.968,0 220.518,38.562 145.405,97.862 C85.172,145.429 131.67,172.551 145.38,203.54 C110.222,171.817 84.42,143.893 101.73,117.903 C127.136,79.752 197.522,61.255 181.968,0" id="Path" fill="#E76F00"></path>
            <path d="M109.812,369.847 C176.627,374.124 279.229,367.474 281.658,335.86 C281.658,335.86 276.988,347.844 226.439,357.363 C169.412,368.094 99.075,366.842 57.358,359.964 C57.358,359.962 65.899,367.031 109.812,369.847" id="Path" fill="#5382A1"></path>
            <path d="M98.862,490.65 C92.559,496.117 85.902,499.186 79.928,499.186 C71.401,499.186 66.794,494.073 66.794,485.872 C66.794,477.001 71.731,470.515 91.533,470.515 L98.861,470.515 L98.862,490.65 M116.254,510.273 L116.254,449.531 C116.254,434.013 107.404,423.775 86.066,423.775 C73.609,423.775 62.697,426.851 53.828,430.774 L56.388,441.526 C63.371,438.963 72.41,436.577 81.282,436.577 C93.574,436.577 98.862,441.526 98.862,451.758 L98.862,459.436 L92.727,459.436 C62.862,459.436 49.39,471.029 49.39,488.429 C49.39,503.447 58.268,511.983 74.984,511.983 C85.729,511.983 93.75,507.546 101.248,501.054 L102.609,510.275 L116.254,510.273 L116.254,510.273 Z M174.297,510.273 L152.606,510.273 L126.5,425.313 L145.444,425.313 L161.642,477.512 L165.243,493.211 C173.438,470.513 179.235,447.485 182.134,425.313 L200.561,425.313 C195.623,453.289 186.739,483.997 174.297,510.273 M257.511,490.65 C251.196,496.117 244.528,499.186 238.553,499.186 C230.041,499.186 225.422,494.073 225.422,485.872 C225.422,477.001 230.369,470.515 250.17,470.515 L257.511,470.515 L257.511,490.65 M274.901,510.273 L274.901,449.531 C274.901,434.013 266.03,423.775 244.715,423.775 C232.25,423.775 221.334,426.851 212.469,430.774 L215.026,441.526 C222.011,438.963 231.067,436.577 239.932,436.577 C252.215,436.577 257.511,441.526 257.511,451.758 L257.511,459.436 L251.365,459.436 C221.492,459.436 208.025,471.029 208.025,488.429 C208.025,503.447 216.896,511.983 233.609,511.983 C244.361,511.983 252.379,507.546 259.889,501.054 L261.255,510.275 L274.901,510.273 L274.901,510.273 Z M30.32,524.7 C25.362,531.939 17.354,537.666 8.587,540.906 L0,530.801 C6.673,527.377 12.396,521.847 15.055,516.697 C17.355,512.116 18.307,506.212 18.307,492.093 L18.307,395.098 L36.785,395.098 L36.785,490.764 C36.784,509.639 35.275,517.264 30.32,524.7" id="Shape" fill="#E76F00"></path>
        </g>
    </g>
</svg>