<?xml version="1.0" encoding="UTF-8"?>
<svg width="512px" height="512px" viewBox="0 0 512 512" version="1.1" xmlns="http://www.w3.org/2000/svg" xmlns:xlink="http://www.w3.org/1999/xlink">
    <title>js</title>
    <g id="Page-1" stroke="none" stroke-width="1" fill="none" fill-rule="evenodd">
        <g id="Medium" transform="translate(-747.000000, -2340.000000)" fill-rule="nonzero">
            <g id="js" transform="translate(747.000000, 2340.000000)">
                <polygon id="Path" fill="#FFDF00" points="0 0 512 0 512 512 0 512"></polygon>
                <path d="M343.934,400.002 C354.247,416.841 367.665,429.218 391.396,429.218 C411.331,429.218 424.066,419.254 424.066,405.487 C424.066,388.989 410.982,383.146 389.039,373.548 L377.011,368.387 C342.292,353.596 319.228,335.066 319.228,295.894 C319.228,259.81 346.722,232.341 389.689,232.341 C420.279,232.341 442.271,242.987 458.118,270.863 L420.653,294.919 C412.404,280.128 403.505,274.301 389.689,274.301 C375.597,274.301 366.665,283.241 366.665,294.919 C366.665,309.353 375.605,315.196 396.247,324.136 L408.275,329.288 C449.154,346.818 472.234,364.689 472.234,404.869 C472.234,448.186 438.206,471.917 392.508,471.917 C347.826,471.917 318.959,450.624 304.834,422.716 L343.934,400.002 Z M173.974,404.171 C181.532,417.581 188.408,428.918 204.938,428.918 C220.745,428.918 230.717,422.733 230.717,398.686 L230.717,235.089 L278.829,235.089 L278.829,399.335 C278.829,449.153 249.621,471.828 206.986,471.828 C168.464,471.828 146.156,451.892 134.81,427.881 L173.974,404.171 Z" id="Shape" fill="#000000"></path>
            </g>
        </g>
    </g>
</svg>