<?xml version="1.0" encoding="UTF-8"?>
<svg width="1100px" height="291px" viewBox="0 0 1100 291" version="1.1" xmlns="http://www.w3.org/2000/svg" xmlns:xlink="http://www.w3.org/1999/xlink">
    <title>MongoDB_Logo</title>
    <g id="Page-1" stroke="none" stroke-width="1" fill="none" fill-rule="evenodd">
        <g id="Medium" transform="translate(-258.000000, -3477.000000)" fill-rule="nonzero">
            <g id="MongoDB_Logo" transform="translate(258.000000, 3477.000000)">
                <path d="M128.119428,115.65 C112.809428,48.11 80.8994277,30.13 72.7594277,17.42 C69.4028611,11.8209342 66.4293892,6.00094779 63.8594277,0 C63.4294277,6 62.6394277,9.78 57.5394277,14.33 C47.2994277,23.46 3.80942766,58.9 0.149427663,135.64 C-3.26057234,207.19 52.7494277,251.31 60.1494277,255.87 C65.8394277,258.67 72.7694277,255.93 76.1494277,253.36 C103.149428,234.83 140.039428,185.43 128.149428,115.65" id="Path" fill="#10AA50"></path>
                <path d="M66.1794277,217.77 C64.7694277,235.48 63.7594277,245.77 60.1794277,255.89 C60.1794277,255.89 62.5294277,272.75 64.1794277,290.61 L70.0194277,290.61 C71.4124619,278.033202 73.5394223,265.548579 76.3894277,253.22 C68.8294277,249.5 66.4694277,233.31 66.1794277,217.77 Z" id="Path" fill="#B8C4C2"></path>
                <path d="M76.3794277,253.23 L76.3794277,253.23 C68.7394277,249.7 66.5294277,233.17 66.1894277,217.77 C68.0788285,192.366587 68.6295906,166.881321 67.8394277,141.42 C67.4394277,128.06 68.0294277,17.68 64.5494277,1.52 C66.9299388,6.99322766 69.6726871,12.3016649 72.7594277,17.41 C80.8994277,30.13 112.819428,48.11 128.119428,115.65 C140.039428,185.31 103.349428,234.58 76.3794277,253.23 Z" id="Path" fill="#12924F"></path>
                <path d="M1083.37943,228.81 C1074.24716,228.809122 1066.83281,221.427781 1066.79102,212.295606 C1066.74958,203.163431 1074.09634,195.714818 1083.22822,195.630704 C1092.3601,195.54659 1099.84282,202.858608 1099.96943,211.99 C1100.08957,216.446649 1098.38794,220.759726 1095.25724,223.933825 C1092.12655,227.107923 1087.83731,228.868776 1083.37943,228.81 M1083.37943,197.13 C1077.26676,197.08954 1071.7327,200.73844 1069.36167,206.372672 C1066.99063,212.006904 1068.25041,218.514834 1072.55269,222.857271 C1076.85497,227.199708 1083.35092,228.51989 1089.00693,226.201294 C1094.66295,223.882699 1098.3631,218.382784 1098.37943,212.27 C1098.45806,208.255379 1096.90756,204.380033 1094.08147,201.527565 C1091.25538,198.675098 1087.39461,197.088671 1083.37943,197.13 M1087.37943,222.71 L1083.09943,213.48 L1079.64943,213.48 L1079.64943,222.71 L1077.13943,222.71 L1077.13943,201.71 L1083.32943,201.71 C1087.93943,201.71 1089.85943,203.71 1089.85943,207.58 C1089.85943,210.66 1088.40943,212.58 1085.70943,213.17 L1090.12943,222.68 L1087.37943,222.71 Z M1079.74943,211.31 L1083.37943,211.31 C1086.31943,211.31 1087.43943,210.31 1087.43943,207.63 C1087.43943,204.95 1086.36943,204.04 1083.05943,204.04 L1079.74943,204.04 L1079.74943,211.31 Z" id="Shape" fill="#10AA50"></path>
                <path d="M836.469428,213.69 C840.959428,217.28 849.929428,218.76 857.839428,218.76 C868.089428,218.76 878.139428,216.86 887.959428,207.99 C897.959428,198.9 904.839428,184.99 904.839428,162.78 C904.839428,141.44 896.719428,124.12 880.059428,113.98 C870.659428,108.07 858.479428,105.74 844.589428,105.74 C840.589428,105.74 836.469428,105.95 834.129428,107.01 C833.170091,107.767287 832.490887,108.823045 832.199428,110.01 C831.779428,113.81 831.779428,142.75 831.779428,159.86 C831.779428,177.4 831.779428,201.86 832.199428,204.86 C832.419428,207.4 833.699428,211.86 836.469428,213.73 M793.829428,96.24 C797.459428,96.24 811.259428,96.87 817.679428,96.87 C829.679428,96.87 837.969428,96.24 860.399428,96.24 C879.199428,96.24 895.019428,101.31 906.329428,111.02 C920.009428,122.86 927.329428,139.33 927.329428,159.4 C927.329428,187.92 914.329428,204.4 901.259428,213.69 C888.259428,223.41 871.349428,228.9 847.259428,228.9 C834.439428,228.9 812.429428,228.48 794.059428,228.27 L793.679428,228.27 C792.819428,226.58 795.249428,219.99 796.749428,219.82 C801.749428,219.26 803.069428,219.06 805.369428,218.11 C809.249428,216.52 810.159428,214.54 810.589428,207.57 C811.229428,194.47 811.019428,178.84 811.019428,161.09 C811.019428,148.42 811.229428,123.7 810.809428,115.88 C810.159428,109.34 807.399428,107.65 801.809428,106.38 C797.845283,105.537915 793.839814,104.903716 789.809428,104.48 C789.389428,103.21 792.669428,97.48 793.739428,96.24" id="Shape" fill="#10AA50"></path>
                <path d="M980.279428,106.96 C979.429428,107.17 978.359428,109.29 978.359428,110.34 C978.139428,117.95 977.929428,137.8 977.929428,151.53 C978.040021,152.066605 978.461808,152.48445 978.999428,152.59 C981.769428,152.8 988.609428,153.02 994.379428,153.02 C1002.49943,153.02 1007.19943,151.96 1009.75943,150.69 C1016.59943,147.31 1019.75943,139.91 1019.75943,131.89 C1019.75943,113.51 1006.93943,106.54 987.929428,106.54 C985.359579,106.507534 982.790455,106.64785 980.239428,106.96 M1028.73943,191.46 C1028.73943,172.87 1015.05943,162.31 990.059428,162.31 C988.999428,162.31 981.059428,162.1 979.169428,162.52 C978.529428,162.73 977.889428,163.15 977.889428,163.58 C977.889428,176.89 977.669428,198.22 978.319428,206.67 C978.749428,210.26 981.319428,215.33 984.509428,216.81 C987.929428,218.71 995.619428,219.13 1000.95943,219.13 C1015.69943,219.13 1028.73943,210.9 1028.73943,191.46 M941.679428,96.61 C943.609428,96.61 949.289428,97.24 963.819428,97.24 C977.489428,97.24 988.599428,96.82 1001.81943,96.82 C1018.26943,96.82 1040.90943,102.74 1040.90943,127.24 C1040.90943,139.24 1032.36943,149 1021.25943,153.65 C1020.61943,153.86 1020.61943,154.28 1021.25943,154.49 C1037.06943,158.49 1050.94943,168.22 1050.94943,186.81 C1050.94943,204.98 1039.62943,216.39 1023.17943,223.57 C1013.17943,228.01 1000.74943,229.48 988.179428,229.48 C978.569428,229.48 952.809428,228.48 938.489428,228.64 C936.989428,228.01 939.859428,221.24 941.139428,220.19 C944.420151,220.089138 947.675395,219.578511 950.829428,218.67 C955.949428,217.41 956.559428,215.76 957.199428,208.15 C957.629428,201.6 957.629428,178.15 957.629428,161.46 C957.629428,138.64 957.849428,123.23 957.629428,115.62 C957.419428,109.71 955.279428,107.8 951.219428,106.75 C948.019428,106.11 942.679428,105.48 938.409428,104.85 C937.339428,103.79 940.629428,97.45 941.689428,96.61" id="Shape" fill="#10AA50"></path>
                <path d="M175.429428,228.81 C174.879203,227.457802 174.656478,225.994671 174.779428,224.54 C174.731502,223.548444 174.956316,222.562723 175.429428,221.69 C178.192604,221.291502 180.930487,220.733908 183.629428,220.02 C187.409428,219.08 188.829428,217.02 189.049428,212.2 C189.669428,200.81 189.709428,179.44 189.489428,164.42 L189.489428,163.98 C189.489428,162.36 189.489428,160.16 187.489428,158.61 C183.974204,156.404618 180.157856,154.72044 176.159428,153.61 C174.369428,153.08 173.379428,152.14 173.429428,151.04 C173.479428,149.94 174.609428,148.64 176.939428,148.18 C183.129428,147.55 199.349428,143.68 205.719428,140.74 C206.375361,141.594816 206.679474,142.668157 206.569428,143.74 C206.569428,144.4 206.469428,145.1 206.399428,145.82 C206.219428,147.94 206.019428,150.35 206.019428,152.75 C206.099323,153.344689 206.509181,153.842801 207.077353,154.035725 C207.645525,154.228649 208.273944,154.083087 208.699428,153.66 C220.829428,144.15 231.699428,140.76 237.269428,140.76 C246.439428,140.76 253.579428,145.14 259.109428,154.16 C259.367274,154.602826 259.837111,154.879424 260.349428,154.89 C260.814269,154.885665 261.247554,154.654081 261.509428,154.27 C272.659428,145.81 283.709428,140.76 291.109428,140.76 C308.589428,140.76 319.039428,153.85 319.039428,175.76 C319.039428,182.06 318.979428,190.05 318.919428,197.5 C318.869428,204.04 318.819428,210.17 318.819428,214.41 C318.819428,215.41 320.199428,218.29 322.269428,218.86 C324.829428,220.11 328.519428,220.75 333.189428,221.55 L333.369428,221.55 C333.719428,222.81 332.979428,227.7 332.269428,228.7 C331.109428,228.7 329.509428,228.6 327.509428,228.5 C323.879428,228.32 318.899428,228.07 313.109428,228.07 C301.489428,228.07 295.419428,228.29 289.619428,228.67 C289.179428,227.22 289.029428,222.54 289.559428,221.56 C291.961289,221.184397 294.338787,220.666823 296.679428,220.01 C300.379428,218.79 301.449428,217.11 301.679428,212.2 C301.769428,208.71 302.439428,177.96 301.249428,170.66 C300.149428,163.09 294.449428,154.23 281.979428,154.23 C277.349428,154.23 269.879428,156.16 262.759428,161.56 C262.317788,162.060597 262.069534,162.702512 262.059428,163.37 L262.059428,163.52 C262.899428,167.46 262.899428,172.06 262.899428,179.01 C262.899428,183.01 262.899428,187.18 262.849428,191.35 C262.799428,199.83 262.759428,207.83 262.899428,213.88 C262.899428,218 265.389428,218.99 267.399428,219.78 C268.489428,220.02 269.349428,220.23 270.219428,220.43 C271.889428,220.84 273.629428,221.26 276.219428,221.67 C276.602819,223.42673 276.568567,225.248919 276.119428,226.99 C276.013448,227.643409 275.756657,228.263131 275.369428,228.8 C268.909428,228.58 262.279428,228.39 252.709428,228.39 C249.809428,228.39 245.079428,228.51 240.899428,228.62 C237.509428,228.71 234.309428,228.8 232.489428,228.81 C231.997214,227.648495 231.778256,226.389485 231.849428,225.13 C231.747266,223.943272 231.979357,222.751642 232.519428,221.69 L235.089428,221.22 C237.329428,220.82 239.269428,220.48 241.089428,220.02 C244.249428,219.02 245.439428,217.3 245.669428,213.27 C246.289428,203.87 246.769428,176.78 245.439428,170 C243.179428,159.12 236.989428,153.6 227.029428,153.6 C221.199428,153.6 213.829428,156.41 207.809428,160.92 C206.638791,162.059835 205.99719,163.636651 206.039428,165.27 C206.039428,168.5 206.039428,172.34 206.039428,176.46 C206.039428,190.06 205.949428,206.99 206.279428,214.31 C206.479428,216.57 207.279428,219.25 211.509428,220.23 C212.439428,220.5 214.039428,220.76 215.899428,221.07 C216.969428,221.25 218.139428,221.44 219.349428,221.66 C219.734096,224.054616 219.538625,226.506573 218.779428,228.81 C216.919428,228.81 214.629428,228.69 212.009428,228.58 C208.009428,228.4 203.009428,228.18 197.359428,228.18 C190.679428,228.18 186.029428,228.4 182.299428,228.58 C179.789428,228.7 177.619428,228.8 175.449428,228.81" id="Path" fill="#10AA50"></path>
                <path d="M389.879428,149.8 C386.270184,149.725052 382.720024,150.72397 379.679428,152.67 C372.259428,157.18 368.479428,166.19 368.479428,179.43 C368.479428,204.21 380.889428,221.52 398.659428,221.52 C403.42407,221.671082 408.071419,220.025592 411.679428,216.91 C417.139428,212.46 420.039428,203.36 420.039428,190.62 C420.039428,166.21 407.909428,149.8 389.859428,149.8 M393.279428,230.71 C361.179428,230.71 349.749428,207.16 349.749428,185.13 C349.749428,169.74 356.039428,157.71 368.449428,149.36 C377.14151,143.978926 387.11865,141.029644 397.339428,140.82 C421.829428,140.82 438.939428,158.43 438.939428,183.66 C438.939428,200.8 432.109428,214.34 419.179428,222.8 C412.969428,226.6 402.179428,230.71 393.279428,230.71" id="Shape" fill="#10AA50"></path>
                <path d="M716.679428,149.8 C713.063026,149.718027 709.504462,150.717349 706.459428,152.67 C699.039428,157.18 695.259428,166.19 695.259428,179.43 C695.259428,204.21 707.669428,221.52 725.439428,221.52 C730.217721,221.681223 734.881159,220.035094 738.499428,216.91 C743.959428,212.46 746.849428,203.36 746.849428,190.62 C746.849428,166.21 734.729428,149.8 716.679428,149.8 M720.099428,230.71 C687.999428,230.71 676.569428,207.16 676.569428,185.14 C676.569428,169.73 682.859428,157.71 695.279428,149.36 C703.96638,143.975676 713.941227,141.02605 724.159428,140.82 C748.649428,140.82 765.759428,158.44 765.759428,183.65 C765.759428,200.81 758.929428,214.34 745.999428,222.79 C739.789428,226.6 728.999428,230.71 720.099428,230.71" id="Shape" fill="#10AA50"></path>
                <path d="M608.599428,148.96 C598.709428,148.96 592.309428,156.77 592.309428,168.86 C592.309428,180.95 597.819428,195.32 613.309428,195.32 C615.969428,195.32 620.789428,194.14 623.179428,191.51 C626.779428,188.2 629.179428,181.36 629.179428,174.14 C629.179428,158.37 621.499428,148.96 608.649428,148.96 M607.369428,232.4 C604.575365,232.369512 601.82043,233.058245 599.369428,234.4 C591.539428,239.4 587.909428,244.4 587.909428,250.21 C587.909428,255.65 590.019428,259.98 594.559428,263.82 C600.059428,268.48 607.479428,270.75 617.229428,270.75 C636.419428,270.75 645.019428,260.43 645.019428,250.21 C645.019428,243.09 641.449428,238.32 634.099428,235.62 C628.439428,233.55 618.979428,232.41 607.399428,232.41 M608.679428,281.41 C597.159428,281.41 588.859428,278.98 581.769428,273.52 C574.869428,268.2 571.769428,260.3 571.769428,254.84 C571.844082,251.321415 573.186335,247.948027 575.549428,245.34 C577.549428,243.06 582.199428,238.79 592.949428,231.4 C593.290109,231.255142 593.510778,230.920197 593.509428,230.55 C593.516491,230.133724 593.234022,229.768177 592.829428,229.67 C583.979428,226.28 581.309428,220.67 580.499428,217.67 C580.499428,217.56 580.499428,217.39 580.409428,217.2 C580.159428,216.02 579.919428,214.9 581.529428,213.75 C582.769428,212.87 584.749428,211.69 586.869428,210.44 C589.862103,208.783399 592.732729,206.91532 595.459428,204.85 C595.756485,204.530782 595.889134,204.092083 595.818716,203.661753 C595.748298,203.231422 595.482738,202.857885 595.099428,202.65 C581.999428,198.25 575.399428,188.52 575.399428,173.65 C575.317831,164.239188 579.834684,155.38093 587.499428,149.92 C592.769428,145.75 605.999428,140.74 614.569428,140.74 L615.069428,140.74 C623.879428,140.95 628.849428,142.8 635.729428,145.34 C639.643044,146.755106 643.789967,147.413456 647.949428,147.28 C655.239428,147.28 658.429428,144.97 661.169428,142.28 C661.613753,143.491647 661.850409,144.769592 661.869428,146.06 C662.036821,149.134705 661.201638,152.18067 659.489428,154.74 C657.999428,156.81 654.489428,158.31 651.279428,158.31 C650.949428,158.31 650.629428,158.31 650.279428,158.26 C648.590381,158.141078 646.916307,157.863181 645.279428,157.43 L644.459428,157.72 C644.199428,158.1 644.369428,158.52 644.579428,159.06 C644.630711,159.165563 644.670926,159.276153 644.699428,159.39 C645.284704,162.058908 645.682344,164.76553 645.889428,167.49 C645.889428,183.04 639.759428,189.81 633.129428,194.83 C626.719422,199.639612 619.106865,202.587748 611.129428,203.35 L611.129428,203.35 C610.959428,203.35 610.129428,203.42 608.569428,203.56 C607.569428,203.65 606.269428,203.77 606.079428,203.77 L605.889428,203.77 C604.449428,204.17 600.689428,205.96 600.689428,209.29 C600.689428,212.05 602.389428,215.48 610.519428,216.1 L615.779428,216.47 C626.499428,217.22 639.889428,218.15 646.189428,220.28 C654.760979,223.294078 660.433084,231.465618 660.259428,240.55 C660.259428,254.5 650.339428,267.62 633.729428,275.64 C625.896509,279.381361 617.31993,281.305879 608.639428,281.27" id="Shape" fill="#10AA50"></path>
                <path d="M559.539428,221.37 C554.839428,220.74 551.409428,220.1 547.359428,218.2 C546.564664,217.37674 546.041177,216.329767 545.859428,215.2 C545.429428,208.65 545.429428,189.64 545.429428,177.2 C545.429428,167.05 543.729428,158.2 539.429428,151.85 C534.299428,144.66 527.039428,140.44 517.639428,140.44 C509.309428,140.44 498.199428,146.14 489.019428,153.96 C488.799428,154.17 487.389428,155.51 487.419428,153.43 C487.449428,151.35 487.769428,147.13 487.969428,144.43 C488.149543,142.975394 487.630263,141.521409 486.569428,140.51 C480.569428,143.51 463.739428,147.51 457.509428,148.12 C452.969428,149 451.819428,153.37 456.669428,154.88 L456.739428,154.88 C460.621698,155.950535 464.327284,157.580993 467.739428,159.72 C469.659428,161.2 469.449428,163.31 469.449428,165 C469.659428,179.15 469.659428,200.91 469.019428,212.74 C468.809428,217.39 467.519428,219.08 464.099428,219.93 L464.419428,219.82 C461.815076,220.472657 459.173569,220.966896 456.509428,221.3 C455.439428,222.35 455.439428,228.48 456.509428,229.75 C458.649428,229.75 469.509428,229.12 478.509428,229.12 C490.889428,229.12 497.299428,229.75 500.509428,229.75 C501.799428,228.27 502.219428,222.57 501.369428,221.3 C498.411431,221.166233 495.473858,220.740837 492.599428,220.03 C489.189428,219.19 488.329428,217.49 488.119428,213.7 C487.699428,203.76 487.699428,182.64 487.699428,168.27 C487.699428,164.27 488.759428,162.36 490.039428,161.27 C494.309428,157.47 501.369428,154.94 507.559428,154.94 C513.559428,154.94 517.559428,156.84 520.559428,159.37 C524.053707,162.419013 526.244366,166.692946 526.679428,171.31 C527.529428,179.31 527.309428,195.4 527.309428,209.31 C527.309428,216.92 526.679428,218.83 523.899428,219.67 C522.619428,220.3 519.199428,220.94 515.139428,221.36 C513.859428,222.63 514.279428,228.54 515.139428,229.81 C520.689428,229.81 527.139428,229.18 536.499428,229.18 C548.249428,229.18 555.729428,229.81 558.719428,229.81 C559.999428,228.33 560.429428,222.81 559.579428,221.36" id="Path" fill="#10AA50"></path>
            </g>
        </g>
    </g>
</svg>