<?xml version="1.0" encoding="UTF-8"?>
<svg width="512px" height="503px" viewBox="0 0 512 503" version="1.1" xmlns="http://www.w3.org/2000/svg" xmlns:xlink="http://www.w3.org/1999/xlink">
    <title>mysql</title>
    <g id="Page-1" stroke="none" stroke-width="1" fill="none" fill-rule="evenodd">
        <g id="Medium" transform="translate(-389.000000, -2367.000000)" fill="#00758F">
            <g id="mysql" transform="translate(389.000000, 2367.000000)">
                <path d="M116.411623,86.1105148 C110.504623,86.1105148 106.340623,86.8195148 102.134623,87.8585148 L102.134623,88.5595148 L102.817623,88.5595148 C105.629623,94.1185148 110.504623,97.9725148 113.963623,102.844515 C116.768623,108.417515 119.202623,113.968515 121.984623,119.541515 C122.333623,119.203515 122.667623,118.840515 122.667623,118.840515 C127.572623,115.374515 130.006623,109.801515 130.006623,101.430515 C127.906623,98.9815148 127.571623,96.5625148 125.821623,94.1175148 C123.735623,90.6415148 119.201623,88.9005148 116.411623,86.1105148" id="Path"></path>
                <path d="M471.608623,388.735515 C443.736623,388.037515 422.156623,390.820515 404.049623,398.486515 C398.824623,400.572515 390.483623,400.572515 389.764623,407.191515 C392.568623,409.974515 392.902623,414.493515 395.359623,418.344515 C399.530623,425.305515 406.825623,434.692515 413.458623,439.583515 C420.768623,445.156515 428.085623,450.707515 435.757623,455.583515 C449.323623,463.975515 464.654623,468.828515 477.864623,477.192515 C485.551623,482.060515 493.188623,488.323515 500.876623,493.561515 C504.691623,496.345515 507.110623,500.878515 512.000623,502.600515 L512.000623,501.547515 C509.551623,498.423515 508.861623,493.896515 506.441623,490.394515 C502.960623,486.935515 499.473623,483.782515 495.985623,480.316515 C485.878623,466.736515 473.330623,454.907515 459.779623,445.156515 C448.626623,437.476515 424.234623,427.027515 419.729623,414.181515 C419.729623,414.181515 419.366623,413.811515 419.024623,413.469515 C426.682623,412.764515 435.757623,409.974515 443.060623,407.860515 C454.881623,404.736515 465.679623,405.440515 477.864623,402.316515 C483.444623,400.913515 489.017623,399.162515 494.612623,397.448515 L494.612623,394.295515 C488.312623,388.038515 483.807623,379.668515 477.188623,373.754515 C459.444623,358.437515 439.921623,343.477515 419.728623,330.921515 C408.916623,323.953515 394.987623,319.448515 383.493623,313.511515 C379.337623,311.419515 372.376623,310.387515 369.928623,306.885515 C363.657623,299.227515 360.163623,289.141515 355.643623,280.074515 C345.558623,260.942515 335.785623,239.711515 327.095623,219.479515 C320.832623,205.906515 316.995623,192.337515 309.337623,179.793515 C273.451623,120.582515 234.461623,84.7355148 174.567623,49.5575148 C161.677623,42.2295148 146.361623,39.1015148 130.005623,35.2725148 C121.286623,34.9055148 112.588623,34.2305148 103.883623,33.8885148 C98.3036229,31.4395148 92.7226229,24.8175148 87.8546229,21.6855148 C67.9986229,9.1535148 16.8306229,-18.0034852 2.19662294,17.8575148 C-7.20537706,40.5055148 16.1256229,62.7835148 24.1396229,74.2775148 C30.0546229,82.2775148 37.7276229,91.3455148 41.8836229,100.387515 C44.3246229,106.309515 45.0226229,112.586515 47.4716229,118.846515 C53.0366229,134.166515 58.2546229,151.235515 65.5786229,165.520515 C69.4006229,172.833515 73.5706229,180.506515 78.4466229,187.089515 C81.2586229,190.944515 86.1196229,192.662515 87.1656229,198.951515 C82.3046229,205.904515 81.9266229,216.352515 79.1446229,225.064515 C66.6176229,264.417515 71.4866229,313.168515 89.2516229,342.065515 C94.8106229,350.769515 108.056623,369.930515 125.821623,362.599515 C141.486623,356.343515 138.006623,336.492515 142.533623,319.090515 C143.572623,314.883515 142.874623,312.122515 144.959623,309.340515 L144.959623,310.045515 C149.827623,319.781515 154.717623,329.162515 159.244623,338.942515 C170.049623,355.988515 188.839623,373.753515 204.526623,385.583515 C212.860623,391.875515 219.479623,402.650515 229.927623,406.494515 L229.927623,405.441515 L229.237623,405.441515 C227.144623,402.317515 224.020623,400.914515 221.230623,398.487515 C214.959623,392.217515 208.013623,384.551515 203.116623,377.590515 C188.497623,358.096515 175.593623,336.494515 164.127623,314.209515 C158.539623,303.390515 153.679623,291.561515 149.144623,280.770515 C147.059623,276.614515 147.059623,270.325515 143.571623,268.243515 C138.332623,275.895515 130.695623,282.521515 126.867623,291.895515 C120.247623,306.884515 119.558623,325.340515 117.102623,344.501515 C115.714623,344.864515 116.411623,344.501515 115.714623,345.191515 C104.582623,342.408515 100.753623,330.921515 96.5606229,321.199515 C86.1196229,296.444515 84.3616229,256.746515 93.4286229,228.191515 C95.8556229,220.893515 106.333623,197.910515 102.133623,190.946515 C100.033623,184.301515 93.0726229,180.509515 89.2506229,175.262515 C84.7316229,168.646515 79.8266229,160.305515 76.7236229,152.977515 C68.3606229,133.482515 64.1616229,111.884515 55.1366229,92.3895148 C50.9516229,83.3215148 43.6276229,73.9155148 37.7266229,65.5745148 C31.0926229,56.1685148 23.7906229,49.5565148 18.5586229,38.4255148 C16.8296229,34.5845148 14.3886229,28.3145148 17.1636229,24.1475148 C17.8546229,21.3575148 19.2646229,20.3075148 22.0546229,19.6035148 C26.5586229,15.7775148 39.4566229,20.6425148 43.9766229,22.7345148 C56.8666229,27.9405148 67.6636229,32.8455148 78.4466229,40.1435148 C83.3286229,43.6355148 88.5536229,50.2465148 94.8096229,52.0055148 L102.133623,52.0055148 C113.271623,54.4215148 125.820623,52.6805148 136.275623,55.8265148 C154.716623,61.7415148 171.428623,70.4495148 186.410623,79.8515148 C232.011623,108.759515 269.628623,149.859515 295.036623,198.952515 C299.221623,206.948515 300.980623,214.269515 304.801623,222.609515 C312.118623,239.710515 321.179623,257.119515 328.474623,273.817515 C335.783623,290.187515 342.766623,306.884515 353.221623,320.486515 C358.431623,327.789515 379.335623,331.618515 388.738623,335.454515 C395.684623,338.579515 406.496623,341.369515 412.767623,345.191515 C424.611623,352.494515 436.425623,360.864515 447.586623,368.886515 C453.145623,373.062515 470.562623,381.760515 471.608623,388.735515" id="Path"></path>
            </g>
        </g>
    </g>
</svg>