<?xml version="1.0" encoding="UTF-8"?>
<svg width="591px" height="160px" viewBox="0 0 591 160" version="1.1" xmlns="http://www.w3.org/2000/svg" xmlns:xlink="http://www.w3.org/1999/xlink">
    <title>Node.js_logo_2015</title>
    <g id="Page-1" stroke="none" stroke-width="1" fill="none" fill-rule="evenodd">
        <g id="Medium" transform="translate(-597.000000, -3325.000000)">
            <g id="Node.js_logo_2015" transform="translate(597.000000, 3325.000000)">
                <path d="M298.53629,0.000313081295 C298.12682,0.00554850966 297.71265,0.10327851 297.34722,0.31762851 C296.61759,0.74599851 296.15814,1.53270851 296.15814,2.37868851 L296.15814,63.0212285 C296.15814,63.6170885 295.88068,64.1495385 295.36543,64.4483685 C294.84888,64.7479485 294.21854,64.7479485 293.70073,64.4483685 L283.7918,58.7408185 C282.31545,57.8895085 280.51219,57.8900185 279.03551,58.7408185 L239.47906,81.5709985 C238.00017,82.4240885 237.10091,84.0653185 237.10091,85.7722585 L237.10091,131.432619 C237.10091,133.138279 238.00144,134.700119 239.47906,135.554729 L279.03551,158.384909 C280.5144,159.238249 282.31291,159.238249 283.7918,158.384909 L323.34825,135.554729 C324.82587,134.700119 325.7264,133.138279 325.7264,131.432619 L325.7264,17.5988085 C325.7264,15.8671885 324.78148,14.2421385 323.26898,13.3974185 L299.72536,0.23835851 C299.35564,0.0321285097 298.94576,-0.00389149034 298.53629,0.000313081295 L298.53629,0.000313081295 Z M44.07493,56.9965985 C43.32059,57.0269985 42.61189,57.1589385 41.9346,57.5516185 L2.37814,80.3817985 C0.9042,81.2338685 0,82.7858185 0,84.5039185 L0.0791,145.780619 C0.0791,146.632949 0.51881,147.424389 1.26818,147.841929 C2.00267,148.281539 2.91431,148.281539 3.64632,147.841929 L27.11067,134.365529 C28.59702,133.482509 29.56808,131.946549 29.56808,130.243419 L29.56808,101.626549 C29.56808,99.9196085 30.46602,98.3529585 31.94623,97.5044285 L41.93443,91.7177485 C42.67991,91.2867585 43.48024,91.0835685 44.31257,91.0835685 C45.12782,91.0835685 45.96586,91.2865085 46.69072,91.7177485 L56.67892,97.5044285 C58.15908,98.3529585 59.05706,99.9196085 59.05706,101.626549 L59.05706,130.243419 C59.05706,131.946549 60.03782,133.492409 61.51448,134.365529 L84.97883,147.841929 C85.71574,148.281539 86.6261,148.281539 87.35697,147.841929 C88.08533,147.424389 88.54604,146.632949 88.54604,145.780619 L88.62514,84.5039185 C88.62514,82.7858185 87.73096,81.2338685 86.247,80.3817985 L46.69063,57.5516185 C46.02158,57.1589385 45.30974,57.0275385 44.5503,56.9965985 L44.07467,56.9965985 L44.07493,56.9965985 Z M399.52812,57.5508185 C398.70172,57.5508185 397.89195,57.7596285 397.14997,58.1857885 L357.59352,81.0159685 C356.1159,81.8693085 355.21538,83.4311485 355.21538,85.1380885 L355.21538,130.798439 C355.21538,132.515269 356.18249,134.072039 357.67279,134.920559 L396.91216,157.275109 C398.36124,158.102579 400.13058,158.164469 401.58917,157.353709 L425.37061,144.115249 C426.12527,143.696689 426.63578,142.914889 426.63895,142.054189 C426.64395,141.193239 426.19503,140.421579 425.44988,139.993129 L385.65561,117.162949 C384.91046,116.738059 384.38727,115.877109 384.38727,115.022499 L384.38727,100.753639 C384.38727,99.9005485 384.9168,99.1187385 385.65561,98.6928285 L398.02196,91.5581485 C398.7576,91.1324885 399.66129,91.1324885 400.4001,91.5581485 L412.76645,98.6928285 C413.50526,99.1187385 413.95552,99.9005485 413.95552,100.753639 L413.95552,112.010439 C413.95552,112.864789 414.40578,113.645329 415.14459,114.071239 C415.88657,114.498419 416.78393,114.500189 417.52274,114.071239 L441.2249,100.278259 C442.69618,99.4236485 443.60304,97.8577485 443.60304,96.1561485 L443.60304,85.1372885 C443.60304,83.4354185 442.69935,81.8697785 441.2249,81.0151685 L401.90626,58.1849885 C401.16585,57.7557885 400.35452,57.5518385 399.52812,57.5508185 L399.52812,57.5508185 Z M281.25511,91.6383485 C281.46134,91.6383485 281.7041,91.6890485 281.88928,91.7956185 L295.4447,99.6436185 C295.81252,99.8566985 296.07887,100.249129 296.07887,100.674019 L296.07887,116.369769 C296.07887,116.795929 295.81506,117.188609 295.4447,117.400429 L281.88928,125.248169 C281.52019,125.458719 281.0693,125.458719 280.70021,125.248169 L267.14479,117.400429 C266.7757,117.187349 266.51062,116.795929 266.51062,116.369769 L266.51062,100.674019 C266.51062,100.249129 266.77697,99.8577185 267.14479,99.6436185 L280.70021,91.7968885 C280.88539,91.6903485 281.04885,91.6396185 281.25511,91.6396185 L281.25511,91.6383485 Z" id="path22" fill="#404137"></path>
                <path d="M518.03894,56.4418185 C516.66753,56.4418185 515.3342,56.7254185 514.15464,57.3930785 L476.81778,78.9549085 C474.40159,80.3460285 472.93348,82.9755585 472.93348,85.7722585 L472.93348,128.816779 C472.93348,131.611959 474.40159,134.238439 476.81778,135.633879 L486.56817,141.262279 C491.30543,143.597039 493.05258,143.561019 495.20876,143.561019 C502.2227,143.561019 506.22749,139.305219 506.22749,131.908239 L506.22749,89.4187485 C506.22749,88.8180585 505.70747,88.3880885 505.11769,88.3880885 L500.44068,88.3880885 C499.84138,88.3880885 499.33087,88.8180585 499.33087,89.4187485 L499.33087,131.908239 C499.33087,135.186909 495.91586,138.484099 490.3732,135.713269 L480.22646,129.768039 C479.86815,129.572719 479.59228,129.227979 479.59228,128.816779 L479.59228,85.7722585 C479.59228,85.3635985 479.86498,84.9485985 480.22646,84.7418585 L517.48404,63.2591685 C517.83283,63.0587685 518.24821,63.0587685 518.59384,63.2591685 L555.85142,84.7418585 C556.20656,84.9549385 556.48559,85.3511685 556.48559,85.7722585 L556.48559,128.816779 C556.48559,129.227979 556.27936,129.649069 555.93069,129.847189 L518.59384,151.329879 C518.27358,151.520129 517.83283,151.520129 517.48404,151.329879 L507.89219,145.622329 C507.60681,145.454909 507.2168,145.467589 506.94093,145.622329 C504.29327,147.123289 503.79544,147.297809 501.31266,148.159019 C500.70069,148.372099 499.77162,148.703649 501.62975,149.744449 L514.15464,157.116569 C515.34688,157.806539 516.67547,158.146969 518.03894,158.146969 C519.42143,158.146969 520.731,157.806539 521.92324,157.116569 L559.26009,135.633879 C561.67629,134.228549 563.14439,131.611959 563.14439,128.816779 L563.14439,85.7722585 C563.14439,82.9755585 561.67629,80.3518685 559.26009,78.9549085 L521.92324,57.3930785 C520.75319,56.7254185 519.41035,56.4418185 518.03894,56.4418185 L518.03894,56.4418185 Z M162.90283,57.3136785 C162.07856,57.3136785 161.26287,57.5216885 160.52469,57.9478485 L120.96824,80.6988885 C119.48935,81.5512085 118.59009,83.1947285 118.59009,84.9001485 L118.59009,130.560499 C118.59009,132.267949 119.49031,133.828519 120.96824,134.682619 L160.52469,157.512799 C162.00358,158.366899 163.80209,158.366899 165.28098,157.512799 L204.83743,134.682619 C206.31378,133.828519 207.21558,132.267949 207.21558,130.560499 L207.21558,84.9001485 C207.21558,83.1921985 206.31632,81.5512085 204.83743,80.6988885 L165.28098,57.9478485 C164.5428,57.5216885 163.7271,57.3136785 162.90283,57.3136785 Z M573.44968,57.5521285 L573.44968,58.6619285 L576.54127,58.6619285 L576.54127,66.8267585 L577.80961,66.8267585 L577.80961,58.6619285 L580.98047,58.6619285 L580.98047,57.5521285 L573.44968,57.5521285 L573.44968,57.5521285 Z M582.09027,57.5521285 L582.09027,66.8267585 L583.27934,66.8267585 L583.27934,61.3571585 C583.27934,61.1339285 583.28944,60.7886885 583.27934,60.3267585 C583.26414,59.8561985 583.27934,59.4460185 583.27934,59.2166985 L583.27934,58.9782585 L585.8953,66.8259985 L587.16364,66.8259985 L589.85887,58.9782585 C589.85887,59.4774785 589.79217,59.9594485 589.77977,60.4051385 C589.77477,60.8389085 589.77977,61.1646285 589.77977,61.3563985 L589.77977,66.8259985 L590.96884,66.8259985 L590.96884,57.5513685 L589.22487,57.5513685 L586.52964,65.3993685 L583.91368,57.5513685 L582.09044,57.5513685 L582.09027,57.5521285 Z M528.02714,87.1996485 C517.39525,87.1996485 511.06305,91.7243385 511.06305,99.2489085 C511.06305,107.411719 517.34769,109.654399 527.55151,110.663999 C539.75932,111.859039 540.71057,113.651459 540.71057,116.054459 C540.71057,120.222489 537.38751,121.999689 529.5333,121.999689 C519.66559,121.999689 517.49672,119.536319 516.77059,114.627579 C516.68509,114.101209 516.27911,113.676319 515.74007,113.676319 L510.90451,113.676319 C510.30839,113.676319 509.79471,114.188979 509.79471,114.786119 C509.79471,121.069489 513.21289,128.500209 529.5333,128.500209 C541.34792,128.500209 548.16209,123.862639 548.16209,115.737379 C548.16209,107.682379 542.65748,105.520359 531.198,104.005199 C519.61802,102.473039 518.51457,101.723199 518.51457,99.0112285 C518.51457,96.7725985 519.44997,93.7790585 528.02714,93.7790585 C535.68793,93.7790585 538.51951,95.4311985 539.68004,100.596659 C539.78151,101.082179 540.20958,101.468509 540.71057,101.468509 L545.54613,101.468509 C545.84419,101.468509 546.13274,101.285869 546.33885,101.072029 C546.54178,100.843729 546.68447,100.586509 546.65593,100.279569 C545.90761,91.3836585 539.97493,87.1996485 528.02714,87.1996485 L528.02714,87.1996485 Z M399.44885,98.0599083 C399.29081,98.0599083 399.11591,98.0599083 398.97322,98.1385685 L391.36316,102.577769 C391.07778,102.740119 390.88753,103.042229 390.88753,103.370479 L390.88753,112.090339 C390.88753,112.418589 391.07778,112.719439 391.36316,112.883059 L398.97322,117.242859 C399.25859,117.407739 399.563,117.407739 399.8452,117.242859 L407.45526,112.883059 C407.73747,112.720709 407.93089,112.418589 407.93089,112.090339 L407.93089,103.370479 C407.93089,103.042229 407.7376,102.741129 407.45526,102.577769 L399.8452,98.1385685 C399.70416,98.0548685 399.60701,98.0599083 399.44885,98.0599083 Z" id="path28" fill="#83CD29"></path>
            </g>
        </g>
    </g>
</svg>