<?xml version="1.0" encoding="UTF-8"?>
<svg width="512px" height="270px" viewBox="0 0 512 270" version="1.1" xmlns="http://www.w3.org/2000/svg" xmlns:xlink="http://www.w3.org/1999/xlink">
    <title>php</title>
    <defs>
        <radialGradient cx="30.0373917%" cy="82.308326%" fx="30.0373917%" fy="82.308326%" r="156.049683%" gradientTransform="translate(0.300374,0.823083),scale(0.526038,1.000000),translate(-0.300374,-0.823083)" id="radialGradient-1">
            <stop stop-color="#AEB2D5" offset="0%"></stop>
            <stop stop-color="#AEB2D5" offset="30%"></stop>
            <stop stop-color="#484C89" offset="75%"></stop>
            <stop stop-color="#484C89" offset="100%"></stop>
        </radialGradient>
    </defs>
    <g id="Page-1" stroke="none" stroke-width="1" fill="none" fill-rule="evenodd">
        <g id="Medium" transform="translate(-736.000000, -3076.000000)">
            <g id="php" transform="translate(736.000000, 3076.000000)">
                <g id="g3438" transform="translate(255.999875, 134.665770) scale(-1, 1) rotate(-180.000000) translate(-255.999875, -134.665770) translate(0.000000, 0.000000)">
                    <g id="g3440" transform="translate(-0.000000, 0.000000)">
                        <path d="M-1.27829443e-14,134.66577 C-1.27829443e-14,60.2925395 114.6179,0 255.999249,0 C397.38185,0 511.99975,60.2925395 511.99975,134.66577 C511.99975,209.037749 397.38185,269.33154 255.999249,269.33154 C114.6179,269.33154 -1.27829443e-14,209.037749 -1.27829443e-14,134.66577" id="Path"></path>
                        <g id="g3442" transform="translate(0.000000, 0.000000)" fill="url(#radialGradient-1)" fill-rule="nonzero">
                            <g id="g3448" transform="translate(0.000000, 0.000000)">
                                <g id="g3450" transform="translate(0.000000, 0.000000)">
                                    <path d="M-1.27829443e-14,134.66577 C-1.27829443e-14,60.2925395 114.6179,0 255.999249,0 C397.38185,0 511.99975,60.2925395 511.99975,134.66577 C511.99975,209.037749 397.38185,269.33154 255.999249,269.33154 C114.6179,269.33154 -1.27829443e-14,209.037749 -1.27829443e-14,134.66577" id="path3462"></path>
                                </g>
                            </g>
                        </g>
                    </g>
                    <g id="g3464" transform="translate(9.999531, 9.998279)" fill="#777BB3" fill-rule="nonzero">
                        <g id="g3466" transform="translate(-0.000000, 0.000000)">
                            <g id="g3472" transform="translate(-0.000000, 0.000000)">
                                <path d="M245.999718,4.44624148e-15 C381.859425,4.44624148e-15 491.999437,55.8159035 491.999437,124.667491 C491.999437,193.517826 381.859425,249.334981 245.999718,249.334981 C110.140012,249.334981 0,193.517826 0,124.667491 C0,55.814652 110.140012,4.44624148e-15 245.999718,4.44624148e-15" id="path3474"></path>
                            </g>
                        </g>
                    </g>
                    <g id="g3476" transform="translate(75.142130, 53.699607)" fill-rule="nonzero">
                        <g id="g3478" transform="translate(0.000000, 0.000000)">
                            <g id="g3484" transform="translate(2.775290, 2.778343)" fill="#000000">
                                <path d="M61.1686682,62.7304726 C72.3396083,62.7304726 80.6796424,64.790451 85.9559905,68.8515871 C91.1760208,72.8714234 94.7816088,79.8348012 96.6713824,89.5489886 C98.4335025,98.6286626 97.7626954,104.968791 94.6764823,108.389156 C91.5214364,111.88336 84.7019817,113.655492 74.4045927,113.655492 L56.5518636,113.655492 L46.6549564,62.7292211 L61.1686682,62.7292211 L61.1686682,62.7304726 Z M2.77716594,0 C1.94866916,0 1.16147206,0.370445692 0.634588153,1.01121662 C0.10645274,1.65073604 -0.107554737,2.49299939 0.0513864887,3.30772961 L26.2816948,138.261346 C26.5357505,139.565415 27.6783752,140.50905 29.0087258,140.50905 L85.5404906,140.50905 C103.306866,140.50905 116.531527,135.684495 124.842776,126.169297 C133.19908,116.604039 135.779685,103.231701 132.512003,86.4277334 C131.182904,79.5819971 128.895152,73.2230965 125.715076,67.529997 C122.531245,61.83064 118.322431,56.5580464 113.205024,51.8536364 C107.078904,46.1204887 100.145562,41.9629867 92.6165039,39.516293 C85.2063385,37.1021385 75.6898891,35.8781659 64.3312232,35.8781659 L41.4399321,35.8781659 L34.9020662,2.24770427 C34.6480106,0.942383806 33.5053858,0 32.1762868,0 L2.77716594,0 Z" id="path3486"></path>
                            </g>
                            <g id="g3488" transform="translate(0.000000, 0.000000)" fill="#FFFFFF">
                                <path d="M61.6211637,113.656743 L77.1836373,113.656743 C89.6098376,113.656743 93.9275323,110.929712 95.394297,109.305258 C97.8272242,106.607012 98.2865268,100.917667 96.7233961,92.8542152 C94.9662821,83.8271045 91.7086127,77.4256527 87.0404964,73.8313283 C82.260996,70.1519015 74.490397,68.287158 63.9464614,68.287158 L52.804306,68.287158 L61.6211637,113.656743 Z M88.3157807,146.064484 L31.7840159,146.064484 C29.1245663,146.064484 26.8380653,144.179716 26.3312055,141.569075 L0.102148675,6.61420772 C-0.214482271,4.98599878 0.213532684,3.30147208 1.2673005,2.02118173 C2.32231982,0.740891385 3.89546251,0 5.55495909,0 L34.9528284,0 C37.6135296,0 39.898779,1.88476761 40.4068903,4.49540854 L46.5067292,35.8794174 L67.1077648,35.8794174 C78.7580315,35.8794174 88.5648303,37.1496957 96.255333,39.6539587 C104.163598,42.2232999 111.439852,46.5797913 117.878849,52.6020368 C123.205257,57.5016817 127.591785,63.0020493 130.915784,68.9517075 C134.241035,74.9026172 136.630159,81.539352 138.015576,88.6754376 C141.455965,106.364219 138.661353,120.528761 129.710584,130.773587 C120.84742,140.919544 106.919413,146.064484 88.3157807,146.064484 M46.0636962,62.7317241 L63.9464614,62.7317241 C75.799472,62.7317241 84.6275934,64.9644103 90.4283224,69.4297827 C96.2303029,73.8964066 100.14251,81.3516262 102.176207,91.7966929 C104.121046,101.82626 103.23498,108.903525 99.5180084,113.027236 C95.7960304,117.150947 88.3520744,119.212177 77.1836373,119.212177 L57.0406528,119.212177 L46.0636962,62.7317241 Z M88.3157807,140.50905 C105.322492,140.50905 117.728668,136.046181 125.5268,127.11919 C133.323681,118.1922 135.672757,105.732209 132.561514,89.735463 C131.281223,83.1450339 129.114867,77.1202853 126.066199,71.6624689 C123.013777,66.200898 119.027731,61.2061386 114.101805,56.6769394 C108.230991,51.1828293 101.710646,47.2681195 94.5345126,44.9365643 C87.3583788,42.5987516 78.2186326,41.4348513 67.1077648,41.4348513 L41.9262183,41.4348513 L34.9528284,5.55543388 L5.55495909,5.55543388 L31.7840159,140.50905 L88.3157807,140.50905 Z" id="path3490"></path>
                            </g>
                            <g id="g3492" transform="translate(127.924610, 38.657760)" fill="#000000">
                                <path d="M74.7687809,0 C73.9390326,0 73.153087,0.370445692 72.6262031,1.01121662 C72.0980677,1.65073604 71.8840602,2.49299939 72.0417499,3.30772961 L83.6444594,63.0195704 C84.7482874,68.6976519 84.4754592,72.773806 82.8785379,74.4958779 C81.9011119,75.5483942 78.963828,77.3142687 70.2796298,77.3142687 L49.2593398,77.3142687 L34.6717892,2.24770427 C34.4177335,0.942383806 33.2751088,0 31.9447582,0 L2.77841745,0 C1.94866916,0 1.16272357,0.370445692 0.634588153,1.01121662 C0.10645274,1.65073604 -0.107554737,2.49299939 0.0513864887,3.30772961 L26.2804433,138.262597 C26.534499,139.566666 27.6771237,140.510301 29.0074743,140.510301 L58.173815,140.510301 C59.0035633,140.510301 59.7895089,140.139856 60.3176443,139.500336 C60.8457797,138.859565 61.0597872,138.018554 60.900846,137.202572 L54.5707301,104.630884 L77.1841869,104.630884 C94.4111631,104.630884 106.092717,101.59348 112.895903,95.3459631 C119.831747,88.9720445 121.994349,78.7797819 119.328642,65.0507642 L107.12521,2.25020728 C106.871154,0.944886817 105.728529,0.00250301144 104.398179,0.00250301144 L74.7687809,0.00250301144 L74.7687809,0 Z" id="path3494"></path>
                            </g>
                            <g id="g3496" transform="translate(125.146830, 35.879417)" fill="#FFFFFF">
                                <path d="M60.9515955,146.064484 L31.7852548,146.064484 C29.1245536,146.064484 26.8393042,144.179716 26.3311928,141.569075 L0.102136007,6.61420772 C-0.21449494,4.98599878 0.213520015,3.30147208 1.26853934,2.02118173 C2.32355866,0.740891385 3.89670134,0 5.55619792,0 L34.7225387,0 C37.3819883,0 39.6684893,1.88476761 40.1766006,4.49540854 L54.3273757,77.3142687 L73.0574103,77.3142687 C81.7265904,77.3142687 83.5462797,75.4620403 83.6188671,75.3831954 C84.1444995,74.8175148 84.8365821,72.1968618 83.6952089,66.3273 L72.0924994,6.61545922 C71.7758685,4.98725029 72.2038834,3.30272359 73.2589027,2.02243324 C74.3139221,0.742142891 75.8870647,0 77.5465613,0 L107.175959,0 C109.835409,0 112.12191,1.88601912 112.630021,4.49666004 L124.832202,67.297217 C127.695647,82.0387028 125.24645,93.0970073 117.553445,100.168015 C110.212112,106.909876 97.9160684,110.186318 79.9619674,110.186318 L60.7175639,110.186318 L66.4056574,139.450276 C66.7210369,141.078485 66.2942734,142.764263 65.2392541,144.043302 C64.1829833,145.322341 62.6110921,146.064484 60.9515955,146.064484 M60.9515955,140.50905 L53.9782057,104.629633 L79.9619674,104.629633 C96.3116381,104.629633 107.587705,101.776199 113.793921,96.0755909 C120.000138,90.3724794 121.859876,81.1301097 119.379391,68.3547393 L107.175959,5.55543388 L77.5465613,5.55543388 L89.1492708,65.2660232 C90.4696094,72.0591962 89.9840252,76.6922704 87.6925182,79.1627427 C85.3985082,81.633215 80.5201389,82.8697026 73.0586618,82.8697026 L49.7481163,82.8697026 L34.7237902,5.55543388 L5.55744943,5.55543388 L31.7865063,140.50905 L60.9515955,140.50905 Z" id="path3498"></path>
                            </g>
                            <g id="g3500" transform="translate(232.234506, 2.778343)" fill="#000000">
                                <path d="M61.1692707,62.7304726 C72.3402107,62.7304726 80.6802448,64.790451 85.956593,68.8515871 C91.1766233,72.8701719 94.7822113,79.8335497 96.6732364,89.5489886 C98.4353565,98.6286626 97.7645494,104.968791 94.6783363,108.389156 C91.5232904,111.88336 84.7038357,113.655492 74.4076982,113.655492 L56.5549691,113.655492 L46.6580619,62.7292211 L61.1692707,62.7292211 L61.1692707,62.7304726 Z M2.77776843,0 C1.94927165,0 1.16207455,0.370445692 0.635190643,1.01121662 C0.10705523,1.65073604 -0.106952248,2.49299939 0.0507374724,3.30772961 L26.2797943,138.262597 C26.53385,139.566666 27.6764747,140.510301 29.0080768,140.510301 L85.53859,140.510301 C103.306217,140.510301 116.529626,135.685747 124.842127,126.170549 C133.198431,116.605291 135.777784,103.234204 132.511354,86.4289849 C131.179752,79.5832486 128.893251,73.224348 125.713175,67.5312485 C122.529345,61.8318915 118.320531,56.5592979 113.203124,51.8548879 C107.077003,46.1217402 100.143662,41.9642382 92.6146034,39.5175445 C85.204438,37.10339 75.6879885,35.8794174 64.3293226,35.8794174 L41.4380316,35.8794174 L34.9039202,2.24770427 C34.6498645,0.942383806 33.5072398,0 32.1756377,0 L2.77776843,0 Z" id="path3502"></path>
                            </g>
                            <g id="g3504" transform="translate(229.457316, -0.000000)" fill="#FFFFFF">
                                <path d="M61.6211637,113.656743 L77.1836373,113.656743 C89.6110891,113.656743 93.9275323,110.929712 95.394297,109.305258 C97.8284757,106.607012 98.2877783,100.917667 96.7233961,92.8554667 C94.9662821,83.8271045 91.7073612,77.4256527 87.0404964,73.8313283 C82.260996,70.1519015 74.490397,68.287158 63.9464614,68.287158 L52.804306,68.287158 L61.6211637,113.656743 Z M88.3157807,146.064484 L31.7840159,146.064484 C29.1245663,146.064484 26.8380653,144.179716 26.3312055,141.569075 L0.102148675,6.61420772 C-0.214482271,4.98599878 0.213532684,3.30147208 1.2673005,2.02118173 C2.32231982,0.740891385 3.89546251,0 5.55495909,0 L34.9528284,0 C37.612278,0 39.898779,1.88476761 40.4068903,4.49540854 L46.5054777,35.8794174 L67.1065133,35.8794174 C78.75678,35.8794174 88.5635788,37.1496957 96.2540815,39.6539587 C104.162346,42.2232999 111.439852,46.5810428 117.8801,52.6045398 C123.206509,57.5029332 127.591785,63.0020493 130.915784,68.9517075 C134.241035,74.9026172 136.630159,81.539352 138.015576,88.6754376 C141.455965,106.365471 138.661353,120.530013 129.710584,130.774838 C120.84742,140.919544 106.920665,146.064484 88.3157807,146.064484 M46.0649477,62.7317241 L63.9464614,62.7317241 C75.799472,62.7317241 84.6275934,64.9644103 90.4283224,69.4297827 C96.2315544,73.8964066 100.14251,81.3516262 102.176207,91.7966929 C104.122298,101.82626 103.236232,108.903525 99.5180084,113.027236 C95.7960304,117.150947 88.3520744,119.212177 77.1836373,119.212177 L57.0406528,119.212177 L46.0649477,62.7317241 Z M88.3157807,140.50905 C105.322492,140.50905 117.728668,136.046181 125.5268,127.11919 C133.324932,118.1922 135.671506,105.732209 132.561514,89.735463 C131.281223,83.1450339 129.114867,77.1202853 126.066199,71.6624689 C123.013777,66.200898 119.027731,61.2061386 114.101805,56.6769394 C108.230991,51.1828293 101.710646,47.2681195 94.5345126,44.9365643 C87.3583788,42.5987516 78.2186326,41.4348513 67.1077648,41.4348513 L41.9262183,41.4348513 L34.9540799,5.55543388 L5.55621059,5.55543388 L31.7852674,140.50905 L88.3157807,140.50905 Z" id="path3506"></path>
                            </g>
                        </g>
                    </g>
                </g>
            </g>
        </g>
    </g>
</svg>