<?xml version="1.0" encoding="UTF-8"?>
<svg width="497px" height="512px" viewBox="0 0 497 512" version="1.1" xmlns="http://www.w3.org/2000/svg" xmlns:xlink="http://www.w3.org/1999/xlink">
    <title>postgre</title>
    <g id="Page-1" stroke="none" stroke-width="1" fill="none" fill-rule="evenodd">
        <g id="Medium" transform="translate(-580.000000, -2654.000000)" fill-rule="nonzero">
            <g id="postgre" transform="translate(580.000000, 2654.000000)">
                <g id="Group" fill="#000000">
                    <path d="M370.986908,372.739604 C374.244287,345.607465 373.268275,341.628338 393.477233,346.022896 L398.607554,346.473363 C414.14667,347.180096 434.474752,343.973771 446.417138,338.426017 C472.1248,326.497646 487.36961,306.58099 462.02032,311.814418 C404.197351,323.742789 400.222229,304.163483 400.222229,304.163483 C461.279552,213.569527 486.804024,98.5692592 464.772174,70.4190644 C404.680853,-6.36356758 300.664977,29.9450885 298.925173,30.8880664 L298.371598,30.9901723 C286.94675,28.6197139 274.160489,27.2032449 259.796592,26.971004 C233.629454,26.5405576 213.774862,33.8311187 198.713242,45.2549665 C198.713242,45.2549665 13.1547975,-31.1933187 21.7867497,141.395675 C23.6226538,178.109751 74.4133293,419.208798 134.990154,346.385272 C157.131117,319.756655 178.527307,297.241304 178.527307,297.241304 C189.152326,304.299624 201.872518,307.900358 215.214355,306.607017 L216.245425,305.728106 C215.922089,309.034535 216.065238,312.267888 216.657852,316.096859 C201.05467,333.532942 205.639425,336.595118 174.440068,343.016778 C142.874331,349.522525 161.419564,361.104537 173.524118,364.131677 C188.202341,367.802484 222.159558,373.001876 245.10936,340.881564 L244.195412,344.546364 C250.31676,349.443443 249.903332,379.746871 250.771232,401.397325 C251.640133,423.049781 253.089636,443.253735 257.503213,455.166089 C261.916791,467.076441 267.124191,497.759263 308.127717,488.97215 C342.397258,481.628534 368.598431,471.058571 370.985907,372.736601" id="Path"></path>
                    <path d="M294.758852,511.999031 C276.119521,511.999031 263.949899,504.757521 256.546221,497.769273 C245.421684,487.270385 241.046146,473.866484 238.432435,465.857177 C238.02301,464.600874 237.635609,463.415645 237.34731,462.635836 C232.106875,448.489164 230.337039,428.268193 229.292956,402.261221 C229.138796,398.415232 229.023677,394.303968 228.906556,390.108617 C228.834481,387.522936 228.751395,384.528831 228.642282,381.39458 C211.018003,389.121594 190.364583,390.502025 168.30971,384.987306 C158.447482,382.520748 148.221877,377.533576 141.860279,369.883642 C124.296063,384.483784 107.605753,382.337558 98.4112177,379.27338 C81.9981956,373.797701 67.3780329,358.550889 53.7148627,332.661038 C44.0798701,314.403103 34.7652098,290.635453 26.0311516,262.017773 C10.8343909,212.226134 1.18137971,159.725685 0.318484794,142.47079 C-2.40033492,88.1224247 12.2989098,49.2090673 44.0057933,26.8118389 C70.1909502,8.31465535 105.990078,2.63476468 150.403139,9.92532579 C169.288725,13.0255411 185.638682,17.8825783 195.830252,21.3271507 C214.233338,10.4058241 235.78569,5.07529578 260.149958,5.48071624 C273.156448,5.69093426 285.550301,6.8271126 297.078257,8.86022116 C309.457095,5.02123972 333.198718,-0.320300046 360.223746,0.0150477464 C410.902305,0.619674811 452.908871,20.3851738 481.69973,57.1733271 C501.40817,82.3564448 494.082572,132.022954 484.466599,169.252566 C473.692425,210.967829 454.977015,255.283789 431.961145,294.144092 C438.058469,293.970912 446.414135,293.087996 457.675814,290.763586 C485.765947,284.962569 493.562032,301.483704 495.279814,306.686099 C503.987845,333.046438 467.006491,352.568684 455.46352,357.92524 C440.859374,364.709276 417.079712,368.832552 397.628539,367.947634 L396.728605,367.887572 L393.233981,367.581254 C393.129873,368.468174 393.025765,369.358097 392.92466,370.229 C392.774505,371.519338 392.617342,372.871741 392.449167,374.28821 C391.144814,424.404186 383.933335,456.210172 369.102955,477.328074 C353.414684,499.664239 331.728193,505.900707 312.632388,509.992951 C306.104618,511.3904 300.159453,511.999031 294.758852,511.999031 Z M257.623338,327.761957 C269.892062,337.576136 270.949158,355.478702 271.881125,388.911376 C271.993241,392.92654 272.102354,396.859619 272.249507,400.538434 C272.688963,411.462764 273.715027,437.050301 277.661119,447.700346 C278.243724,449.272977 278.758257,450.849613 279.303823,452.520345 C283.757442,466.169501 285.603356,471.818359 303.626048,467.957355 C319.520532,464.550822 327.666981,461.527687 333.92347,452.620449 C343.28618,439.288622 348.526615,412.237568 349.498623,372.217062 L370.976898,372.739604 L349.645775,370.178948 C349.85299,368.444149 350.044189,366.806451 350.224375,365.260848 C352.08931,349.239231 353.561837,336.584107 364.996696,328.414634 C372.21318,323.258286 380.329598,322.571574 387.368898,323.212239 C381.559874,317.290097 379.720967,311.216798 379.157382,308.444923 L377.366525,299.620772 L382.398744,292.154028 C409.037371,252.630037 431.038188,204.03664 442.759344,158.834761 C454.72075,112.710926 451.350254,88.2765846 447.845619,83.6688058 C400.072073,22.6274993 316.939856,47.5463429 307.777353,50.5454533 L306.172689,51.4153555 L298.126344,52.896892 L294.00507,52.0410044 C283.548225,49.8717546 271.922168,48.6695077 259.450233,48.467298 C240.085149,48.1639835 224.470955,52.7016896 211.704715,62.3847319 L201.901548,69.8194425 L190.526752,65.1335828 C168.279679,56.0411529 102.97395,37.7221541 68.7524583,61.9703021 C49.9019082,75.3241515 41.324012,101.687493 43.2570167,140.325565 C43.9257103,153.700436 53.0091308,203.906505 67.9896672,252.191582 C88.5740154,318.541394 106.739855,336.970507 111.902209,338.471064 C112.547879,338.200783 114.836252,337.008547 118.467018,332.643019 C140.804184,305.778158 162.054222,283.377926 162.94815,282.437951 L175.386049,269.348376 L190.425647,279.34174 C195.601014,282.780306 201.287912,284.784385 207.12897,285.262881 L242.821987,254.852342 L237.641615,307.82428 C237.542512,308.825318 237.498466,310.199743 237.901885,312.811452 L239.457498,322.857871 L232.677466,330.434729 C232.615402,330.501799 232.55534,330.57087 232.495278,330.63794 L249.169571,338.33292 L257.623338,327.761957 Z" id="Shape"></path>
                </g>
                <path d="M462.025325,311.813417 C404.197351,323.741788 400.221228,304.162482 400.221228,304.162482 C461.278551,213.56252 486.803022,98.5602499 464.776178,70.4140592 C404.685858,-6.36456861 300.664977,29.9460895 298.929177,30.8890675 L298.370597,30.9891713 C286.945749,28.6177118 274.159488,27.2042459 259.789585,26.970003 C233.623448,26.5415586 213.774862,33.8301177 198.713242,45.2509623 C198.713242,45.2509623 13.1507933,-31.1933187 21.7807435,141.394674 C23.6166475,178.111754 74.406322,419.209799 134.985149,346.387274 C157.127112,319.758657 178.5203,297.243306 178.5203,297.243306 C189.14632,304.301626 201.866512,307.902361 215.202343,306.609019 L216.238417,305.730108 C215.916083,309.036537 216.064237,312.26989 216.653848,316.098861 C201.047663,333.534944 205.633419,336.59712 174.436064,343.01878 C142.868325,349.524527 161.413558,361.106539 173.521115,364.133679 C188.199338,367.804486 222.158557,373.003878 245.103353,340.883566 L244.188405,344.548366 C250.302746,349.445445 254.5972,376.405406 253.877453,400.844752 C253.157707,425.285099 252.677208,442.0635 257.495205,455.169092 C262.313202,468.274684 267.115182,497.762266 308.126716,488.975153 C342.396257,481.631537 360.154674,462.6008 362.624235,430.855877 C364.377053,408.287471 368.345169,411.623931 368.595428,391.447005 L371.777729,381.895099 C375.447535,351.302371 372.360333,341.433136 393.473229,346.022896 L398.60355,346.473363 C414.142666,347.180096 434.480759,343.973771 446.417138,338.426017 C472.120795,326.497646 487.364605,306.58099 462.021321,311.814418 L462.025325,311.814418 L462.025325,311.813417 Z" id="Path" fill="#336791"></path>
                <g id="Group" transform="translate(13.914438, 13.615154)" fill="#FFFFFF">
                    <path d="M282.893539,485.06106 C248.38575,485.064063 237.461421,457.748734 232.990784,446.573144 C226.440991,430.192155 225.017515,368.956647 226.511064,315.535243 C226.621178,311.579141 229.9206,308.485933 233.8737,308.570268 C237.829803,308.683137 240.947036,311.979556 240.836921,315.934658 C239.173196,375.430361 241.519629,429.304234 246.296584,441.251625 C253.700262,459.756817 264.934914,475.946608 296.658815,469.146555 C327.259551,462.585751 338.143839,451.568325 343.243128,421.993652 C347.142172,399.397218 354.856172,335.04748 355.810161,322.334295 C356.105467,318.388202 359.555045,315.433138 363.491127,315.726442 C367.436219,316.021748 370.395288,319.461315 370.09898,323.407408 C369.10595,336.653145 361.415975,400.946825 357.362771,424.428177 C351.312497,459.51857 335.673277,475.436078 299.659927,483.158087 C293.529569,484.47245 287.955789,485.06106 282.893539,485.06106 L282.893539,485.06106 Z" id="Path"></path>
                    <path d="M97.5893579,352.833926 C94.2599049,352.833926 91.2387717,352.222292 88.6200558,351.348386 C66.2408461,343.884645 44.9737899,307.599013 25.4084985,243.500536 C10.5430814,194.801029 1.12631522,143.950291 0.299457682,127.417144 C-2.15809106,78.2841882 10.5200576,43.5071205 37.9835402,24.0499413 C92.241812,-14.3909261 183.369321,22.1589802 187.222317,23.7326122 C190.884115,25.2301653 192.639936,29.4135039 191.143384,33.0763026 C189.645831,36.7401024 185.463493,38.4949223 181.799693,36.9973692 C180.750605,36.5699259 94.0106464,1.88195069 46.2421052,35.760086 C23.0580608,52.2021382 12.4160239,82.7988704 14.6123017,126.700401 C15.3070222,140.582799 24.0881291,190.08714 39.1147133,239.316196 C56.4817248,296.212203 76.1781522,332.091414 93.1537577,337.754287 C95.7574581,338.623188 103.682677,341.265929 115.154575,327.472624 C137.196435,300.954121 157.446436,279.787169 157.648646,279.576951 C160.387486,276.718987 164.922189,276.622887 167.779152,279.362729 C170.636115,282.099567 170.732215,286.635271 167.994376,289.492234 C167.795169,289.699449 147.877512,310.522044 126.173002,336.635126 C115.760203,349.153109 105.752824,352.833926 97.5893579,352.833926 Z" id="Path"></path>
                    <path d="M385.896364,296.998018 C384.518935,296.998018 383.126491,296.601607 381.898217,295.773749 C378.616814,293.562455 377.749915,289.108836 379.960207,285.826432 C441.562095,194.415629 463.272611,84.0832024 444.814468,60.4937375 C421.580372,30.805948 388.76634,15.286853 347.283318,14.3709031 C316.598494,13.6932003 292.051036,21.5423407 288.013849,22.9227723 C287.678501,23.0899457 287.324134,23.2330942 286.95375,23.3492146 C282.612247,24.7116276 279.270781,22.3231505 278.009473,19.5282518 C276.518927,16.2238248 277.742196,12.3147707 280.844413,10.4388251 C283.524193,8.81814428 311.72544,-0.344358233 345.492461,0.0100092853 C391.791478,0.501519035 430.038144,18.3620424 456.099172,51.6625786 C473.68441,74.1348849 462.078373,128.845626 456.272351,151.324939 C443.789405,199.656064 420.30605,251.597933 391.844533,293.834738 C390.461098,295.889869 388.198752,296.998018 385.896364,296.998018 L385.896364,296.998018 Z" id="Path"></path>
                    <path d="M389.058643,339.374968 C378.4106,339.374968 368.853689,337.871409 363.131754,334.443854 C357.104504,330.83411 355.95331,325.899993 355.803154,323.280276 C354.238531,295.804781 368.947786,290.360134 377.106248,288.007694 C376.069172,286.519151 374.702755,284.813382 373.296296,283.055558 C368.704534,277.318609 362.415011,269.459458 357.558975,257.687249 C356.817206,255.886381 354.454755,251.65199 351.719919,246.747903 C336.80445,219.999162 305.76626,164.337435 325.829067,135.660694 C335.050631,122.478022 353.242498,117.196545 379.987235,119.916365 C376.430547,109.350407 367.518304,89.762092 351.061236,70.3139221 C331.961427,47.7465173 298.119329,20.6634291 245.346598,19.7975311 C218.565824,19.3510681 196.579021,27.5755978 180.072902,44.2228629 C143.072529,81.5405654 144.32683,149.449995 144.343847,150.130701 C144.44295,154.084802 141.31871,157.374213 137.364609,157.475318 C133.443543,157.552398 130.123099,154.457188 130.01799,150.503087 C129.937907,147.475948 128.541459,75.8997152 169.846296,34.1814488 C189.212381,14.6241658 214.66678,4.98416803 245.580841,5.46867051 C303.148545,6.41264952 340.201974,35.6769999 361.148698,60.060288 C383.978375,86.6368508 395.17799,115.993297 396.101948,125.804472 C396.841715,133.674634 390.795445,135.156171 390.103727,135.30032 L387.519047,135.35838 C369.47233,132.468383 346.154147,131.599482 337.567241,143.874212 C322.64977,165.196326 351.788991,217.452521 364.231895,239.766663 C367.429211,245.50061 369.738606,249.641905 370.80271,252.220579 C374.877937,262.100826 380.202459,268.754727 384.480896,274.09927 C388.286843,278.854201 391.586265,282.977477 392.800524,287.875557 C393.427174,288.89061 401.384427,299.722844 446.258966,290.46224 C458.050195,288.023711 465.146555,290.17294 467.351842,296.839854 C471.610259,309.722215 448.127905,324.553596 435.11641,330.595863 C423.5354,335.974441 405.066245,339.374968 389.058643,339.374968 Z M370.079961,321.897842 C371.822768,323.319316 379.224444,325.62771 393.77053,324.948006 C406.939188,324.329364 420.801564,321.445373 429.084154,317.600385 C438.718146,313.126746 445.512192,308.143577 449.482309,304.432729 C449.375198,304.453751 449.268087,304.475774 449.158974,304.497796 C419.723446,310.574098 398.871821,309.740233 387.180696,302.024231 C386.450939,301.542732 385.784248,301.051222 385.175616,300.555708 C384.1956,300.898063 383.180547,301.182358 382.139468,301.474661 C375.519602,303.33459 369.261111,305.090411 370.079961,321.897842 L370.079961,321.897842 Z" id="Shape"></path>
                    <path d="M180.289127,359.71206 C173.011579,359.71206 165.380665,358.733044 157.458449,356.749988 C155.18409,356.181398 135.232398,350.824843 135.497673,338.069614 C135.740925,326.394506 152.3972,322.961946 158.667703,321.668604 C180.712566,317.129897 182.139045,315.32002 188.987147,306.625003 C191.017253,304.04833 193.542872,300.841004 196.988446,296.991011 C208.454337,284.163708 219.265549,288.641352 223.882338,290.554336 C231.12585,293.556449 237.164112,300.797959 239.640681,309.452935 C241.883006,317.286059 240.80689,324.834888 236.610538,330.70898 C222.980402,349.792772 203.444141,359.710058 180.289127,359.71206 L180.289127,359.71206 Z M151.374139,338.737307 C153.453295,340.153776 156.995969,341.863549 160.935054,342.84857 C180.052882,347.631531 206.677494,347.965878 224.948443,322.380343 C227.113689,319.349199 226.451002,315.451156 225.863392,313.398027 C224.618101,309.049517 221.547917,305.100421 218.396648,303.794067 C214.507615,302.182395 212.361389,301.296476 207.673527,306.540915 C207.672526,306.541916 207.670524,306.542917 207.668522,306.54492 C204.522259,310.059565 202.248901,312.945558 200.243822,315.491198 C191.49675,326.595714 187.492597,330.363622 161.5577,335.704161 C156.200144,336.809307 153.11094,337.920459 151.374139,338.737307 L151.374139,338.737307 Z" id="Shape"></path>
                    <path d="M201.300918,308.62808 C197.824313,308.62808 194.771146,306.091449 194.227582,302.548775 C194.081431,301.596788 193.978324,300.639795 193.916259,299.677798 C177.073792,299.22733 160.857974,291.942775 148.518177,279.067422 C132.771846,262.639385 125.606415,239.881783 128.857787,216.630669 C132.356415,191.61072 131.046056,169.517807 130.343327,157.648498 C130.147124,154.333059 130.004976,151.937575 130.015988,150.267843 C130.031003,148.083578 130.069043,142.282561 148.951626,132.711635 C155.597519,129.342141 168.921337,123.465046 183.487444,121.957482 C207.77263,119.434866 223.80726,130.278112 228.608239,152.472129 C241.420527,211.728585 229.615283,237.956786 220.995343,257.107648 C219.399689,260.653325 217.892125,264.002799 216.689878,267.236152 L215.622772,270.103125 C211.107088,282.205677 207.208045,292.658518 208.391272,300.375521 C208.991895,304.286577 206.308111,307.944371 202.396054,308.543993 C202.027672,308.601052 201.662293,308.62808 201.300918,308.62808 Z M144.400907,152.355008 C144.454963,153.55325 144.546057,155.068822 144.648163,156.800618 C145.380923,169.167444 146.746339,192.185316 143.050506,218.615727 C140.410768,237.492304 146.174746,255.912408 158.863906,269.152139 C168.844257,279.563937 181.967868,285.327915 195.456857,285.367957 C197.007465,279.003356 199.507058,272.302406 202.195846,265.092929 L203.256947,262.246978 C204.626367,258.559153 206.231031,254.995457 207.928792,251.224546 C216.166335,232.922565 226.417967,210.145943 214.601713,155.50027 C212.318344,144.945323 206.828651,138.808959 197.815303,136.744818 C178.069825,132.221127 150.376104,147.058515 144.400907,152.355008 L144.400907,152.355008 Z" id="Shape"></path>
                    <g transform="translate(181.433155, 143.912493)">
                        <path d="M2.40465164,5.37433231 C2.073308,7.71876374 6.69610234,13.9732503 12.7233533,14.8091172 C18.7405938,15.6479872 23.8909353,10.7599177 24.2172737,8.41848943 C24.5436122,6.074058 19.926824,3.49238052 13.89657,2.65351052 C7.87632636,1.81263844 2.72298178,3.0359071 2.40465164,5.37433231 Z" id="Path"></path>
                        <path d="M14.0287071,17.2876878 C13.4871454,17.2876878 12.9415796,17.2516504 12.3940117,17.1755715 C8.60808528,16.6500264 4.78411941,14.2655535 2.16740559,10.7969562 C1.24344734,9.57068438 -0.26211409,7.19522077 0.0391984044,5.04599178 C0.151314681,4.23414981 0.567746567,3.05792994 1.90913774,2.04187619 C4.29861589,0.233000183 9.01851093,-0.439697478 14.2269126,0.289058321 C17.4282327,0.734520314 20.4043193,1.65747752 22.6056022,2.88775345 C26.4756159,5.04999593 26.7599107,7.48752392 26.5827269,8.74883203 C26.0772027,12.3745923 20.3402528,17.2876878 14.0287071,17.2876878 Z M4.80614225,5.82780261 C5.17252222,7.42846266 8.59707386,11.8250224 13.0506927,12.443664 C17.5423511,13.0613045 21.2572038,9.51562728 21.8017686,8.22328698 C21.2822298,7.46249796 18.5223675,5.70767802 13.5672285,5.01796271 C8.68316314,4.33825778 5.56392815,5.23819111 4.80614225,5.82780261 L4.80614225,5.82780261 Z" id="Shape"></path>
                    </g>
                    <g transform="translate(344.083538, 140.327156)">
                        <path d="M23.0323489,4.18071347 C23.3586874,6.5251449 18.7418992,12.7796315 12.7136473,13.6154984 C6.69140156,14.4543684 1.54206113,9.56629891 1.21171853,7.22487059 C0.893388385,4.88043916 5.51117754,2.29876168 11.5344243,1.45989168 C17.5576711,0.62102168 22.7060105,1.84228827 23.0333499,4.18271555 L23.0333499,4.18071347 L23.0323489,4.18071347 Z" id="Path"></path>
                        <path d="M11.3612447,14.9028335 C5.42909241,14.9028335 0.419897323,10.1659208 0.0284913927,7.39204397 C-0.458013166,3.82434388 5.366027,1.11253143 11.368252,0.276664544 C17.3754821,-0.562205456 23.7180601,0.456851418 24.213574,4.01654321 L24.214575,4.01654321 C24.4368055,5.61720327 23.2225462,8.07875617 21.1193649,10.2870464 C19.7399343,11.7365497 16.8339205,14.2501566 12.8758155,14.7987255 C12.3672881,14.8697992 11.8597617,14.9028335 11.3612447,14.9028335 L11.3612447,14.9028335 Z M15.2672957,2.38284889 C14.1941828,2.38284889 13.0019463,2.45992883 11.6995956,2.64211778 C5.40907164,3.51902723 2.25379928,6.02262373 2.39494566,7.06470448 C2.62017926,8.66836766 7.15688432,13.1720385 12.548476,12.4332723 C15.7888366,11.9838061 18.2273656,9.86460829 19.391573,8.64133963 C21.2104594,6.73035773 21.933209,4.9495108 21.8511238,4.34588477 C21.7350034,3.52303138 19.3745554,2.38284889 15.2672957,2.38284889 L15.2672957,2.38284889 Z" id="Shape"></path>
                    </g>
                    <path d="M375.795889,279.555929 C374.425467,279.555929 373.041031,279.162521 371.815761,278.343672 C368.52735,276.142389 367.647438,271.691773 369.848721,268.403363 C383.847239,247.49668 381.276573,226.105495 378.789994,205.419041 C377.723888,196.542835 376.620744,187.366318 376.907041,178.537161 C377.196341,169.466754 378.348536,161.993003 379.46169,154.766509 C380.774051,146.246673 382.013337,138.198326 381.498803,128.670444 C381.285582,124.718345 384.315725,121.342845 388.267823,121.129624 C392.219922,120.935422 395.595423,123.946545 395.808644,127.898644 C396.40226,138.911065 394.989795,148.079574 393.62538,156.947771 C392.577293,163.75383 391.492167,170.790127 391.230896,178.99864 C390.979636,186.739668 391.969663,194.982217 393.019752,203.709268 C395.686517,225.903285 398.709653,251.058374 381.757071,276.376632 C380.373636,278.440772 378.106285,279.555929 375.795889,279.555929 L375.795889,279.555929 Z" id="Path"></path>
                </g>
            </g>
        </g>
    </g>
</svg>