<?xml version="1.0" encoding="UTF-8"?>
<svg width="507px" height="512px" viewBox="0 0 507 512" version="1.1" xmlns="http://www.w3.org/2000/svg" xmlns:xlink="http://www.w3.org/1999/xlink">
    <title>python</title>
    <defs>
        <linearGradient x1="-2.17253613%" y1="3.84644075%" x2="70.9822695%" y2="67.9633217%" id="linearGradient-1">
            <stop stop-color="#5A9FD4" offset="0%"></stop>
            <stop stop-color="#306998" offset="100%"></stop>
        </linearGradient>
        <linearGradient x1="64.7606047%" y1="71.7269369%" x2="38.9820374%" y2="34.3640458%" id="linearGradient-2">
            <stop stop-color="#FFD43B" offset="0%"></stop>
            <stop stop-color="#FFE873" offset="100%"></stop>
        </linearGradient>
    </defs>
    <g id="Page-1" stroke="none" stroke-width="1" fill="none" fill-rule="evenodd">
        <g id="Medium" transform="translate(-798.000000, -2903.000000)" fill-rule="nonzero">
            <g id="python" transform="translate(798.000000, 2903.000000)">
                <path d="M250.188635,0.0041851808 C229.306635,0.101185181 209.365635,1.88218518 191.819635,4.98718518 C140.130635,14.1191852 130.745635,33.2321852 130.745635,68.4811852 L130.745635,115.034185 L252.892635,115.034185 L252.892635,130.551185 L130.745635,130.551185 L84.9046348,130.551185 C49.4056348,130.551185 18.3206348,151.888185 8.5986348,192.479185 C-2.6163652,239.005185 -3.1133652,268.039185 8.5986348,316.620185 C17.2816348,352.781185 38.0166348,378.547185 73.5156348,378.547185 L115.512635,378.547185 L115.512635,322.740185 C115.512635,282.423185 150.395635,246.861185 191.819635,246.861185 L313.824635,246.861185 C347.786635,246.861185 374.897635,218.898185 374.897635,184.791185 L374.897635,68.4811852 C374.897635,35.3791852 346.971635,10.5121852 313.824635,4.98718518 C292.841635,1.49418518 271.069635,-0.0928148192 250.188635,0.0041851808 L250.188635,0.0041851808 Z M184.131635,37.4461852 C196.748635,37.4461852 207.051635,47.9181852 207.051635,60.7931852 C207.051635,73.6231852 196.748635,83.9981852 184.131635,83.9981852 C171.469635,83.9981852 161.211635,73.6231852 161.211635,60.7931852 C161.211635,47.9171852 171.469635,37.4461852 184.131635,37.4461852 Z" id="path1948" fill="url(#linearGradient-1)"></path>
                <path d="M390.130635,130.549185 L390.130635,184.791185 C390.130635,226.843185 354.478635,262.236185 313.824635,262.236185 L191.819635,262.236185 C158.400635,262.236185 130.745635,290.838185 130.745635,324.306185 L130.745635,440.616185 C130.745635,473.718185 159.530635,493.189185 191.819635,502.686185 C230.484635,514.055185 267.562635,516.110185 313.824635,502.686185 C344.575635,493.783185 374.897635,475.865185 374.897635,440.616185 L374.897635,394.063185 L252.892635,394.063185 L252.892635,378.545185 L374.897635,378.545185 L435.971635,378.545185 C471.470635,378.545185 484.699635,353.784185 497.045635,316.618185 C509.798635,278.356185 509.255635,241.561185 497.045635,192.477185 C488.272635,157.137185 471.516635,130.549185 435.971635,130.549185 L390.130635,130.549185 L390.130635,130.549185 Z M321.512635,425.099185 C334.174635,425.099185 344.432635,435.474185 344.432635,448.304185 C344.432635,461.180185 334.174635,471.652185 321.512635,471.652185 C308.895635,471.652185 298.592635,461.180185 298.592635,448.304185 C298.591635,435.474185 308.894635,425.099185 321.512635,425.099185 Z" id="path1950" fill="url(#linearGradient-2)"></path>
            </g>
        </g>
    </g>
</svg>