<?xml version="1.0" encoding="UTF-8"?>
<svg width="1440px" height="1440px" viewBox="0 0 1440 1440" version="1.1" xmlns="http://www.w3.org/2000/svg" xmlns:xlink="http://www.w3.org/1999/xlink">
    <title>typescript-2</title>
    <g id="Page-1" stroke="none" stroke-width="1" fill="none" fill-rule="evenodd">
        <g id="Medium" transform="translate(0.000000, -3979.000000)" fill-rule="nonzero">
            <g id="typescript-2" transform="translate(0.000000, 3979.000000)">
                <polygon id="Path" fill="#017ACB" points="0 0 1440 0 1440 1440 0 1440"></polygon>
                <path d="M691.425,533.25 L760.5,533.25 L760.5,652.5 L573.75,652.5 L573.75,1183.05 L568.8,1184.4 C562.05,1186.2 473.175,1186.2 454.05,1184.175 L438.75,1182.825 L438.75,652.5 L252,652.5 L252,533.25 L311.175,532.575 C343.575,532.125 426.825,532.125 496.125,532.575 C565.425,533.025 653.175,533.25 691.425,533.25 Z M1218.6,1126.8 C1191.15,1155.825 1161.675,1172.025 1112.625,1185.3 C1091.25,1191.15 1087.65,1191.375 1039.5,1191.15 C991.35,1190.925 987.525,1190.925 964.125,1184.85 C903.6,1169.325 854.775,1138.95 821.475,1095.975 C812.025,1083.825 796.5,1058.625 796.5,1055.475 C796.5,1054.575 798.75,1052.55 801.675,1051.2 C804.6,1049.85 810.675,1046.025 815.625,1043.1 C820.575,1040.175 829.575,1034.775 835.65,1031.625 C841.725,1028.475 859.275,1018.125 874.575,1008.9 C889.875,999.675 903.825,992.25 905.4,992.25 C906.975,992.25 909.9,995.4 912.15,999.225 C925.65,1021.95 957.15,1050.975 979.425,1060.875 C993.15,1066.725 1023.525,1073.25 1038.15,1073.25 C1051.65,1073.25 1076.4,1067.4 1089.675,1061.325 C1103.85,1054.8 1111.05,1048.275 1119.6,1035.225 C1125.45,1026 1126.125,1023.525 1125.9,1005.975 C1125.9,989.775 1125,985.275 1120.5,977.85 C1107.9,957.15 1090.8,946.35 1021.5,915.75 C949.95,884.025 917.775,865.125 891.675,839.7 C872.325,820.8 868.5,815.625 856.35,792 C840.6,761.625 838.575,751.725 838.35,706.5 C838.125,674.775 838.8,664.425 842.175,653.625 C846.9,637.425 862.2,606.15 869.175,598.275 C883.575,581.4 888.75,576.225 898.875,567.9 C929.475,542.7 977.175,526.05 1022.85,524.475 C1028.025,524.475 1045.125,525.375 1061.1,526.5 C1107,530.325 1138.275,541.575 1168.425,565.65 C1191.15,583.65 1225.575,625.95 1222.2,631.575 C1219.95,634.95 1130.175,694.8 1124.325,696.6 C1120.725,697.725 1118.25,696.375 1113.3,690.525 C1082.7,653.85 1070.325,645.975 1040.625,644.175 C1019.475,642.825 1008.225,645.3 994.05,654.75 C979.2,664.65 972,679.725 972,700.65 C972.225,731.25 983.925,745.65 1027.125,767.025 C1055.025,780.75 1078.875,792 1080.675,792 C1083.375,792 1141.2,820.8 1156.275,829.8 C1226.475,870.975 1255.05,913.275 1262.475,986.175 C1267.875,1041.075 1252.35,1091.25 1218.6,1126.8 L1218.6,1126.8 Z" id="Shape" fill="#FFFFFF"></path>
            </g>
        </g>
    </g>
</svg>