<?xml version="1.0" encoding="UTF-8"?>
<svg width="1440px" height="414px" viewBox="0 0 1440 414" version="1.1" xmlns="http://www.w3.org/2000/svg" xmlns:xlink="http://www.w3.org/1999/xlink">
    <title>logo-on-white-bg</title>
    <g id="Page-1" stroke="none" stroke-width="1" fill="none" fill-rule="evenodd">
        <g id="Medium" transform="translate(0.000000, -4752.000000)" fill-rule="nonzero">
            <g id="logo-on-white-bg" transform="translate(0.000000, 4752.000000)">
                <polygon id="Path" fill="#FFFFFF" points="182.91266 0 365.825319 103.46145 365.825319 310.431615 182.91266 413.893065 0 310.431615 0 103.46145"></polygon>
                <path d="M333.16572,303.294712 L188.962484,384.872813 L188.962484,321.349657 L278.811829,271.911248 L333.16572,303.294712 L333.16572,303.294712 Z M343.043949,294.361768 L343.043949,123.785079 L290.297043,154.270522 L290.297043,263.923589 L343.043949,294.361768 L343.043949,294.361768 Z M32.0924279,303.294712 L176.295664,384.872813 L176.295664,321.349657 L86.3990547,271.911248 L32.0924279,303.294712 L32.0924279,303.294712 Z M22.214199,294.361768 L22.214199,123.785079 L74.9611055,154.270522 L74.9611055,263.923589 L22.214199,294.361768 Z M28.4058161,112.725244 L176.295664,29.0675157 L176.295664,90.4637805 L81.5308366,142.596252 L80.7746086,143.02163 L28.4058161,112.725244 Z M336.852332,112.725244 L188.962484,29.0675157 L188.962484,90.4637805 L283.727312,142.548987 L284.48354,142.974366 L336.852332,112.725244 Z" id="Shape" fill="#8ED6FB"></path>
                <path d="M176.295664,306.886796 L87.6279253,258.110086 L87.6279253,161.549217 L176.295664,212.736403 L176.295664,306.886796 Z M188.962484,306.886796 L277.630223,258.157351 L277.630223,161.549217 L188.962484,212.736403 L188.962484,306.886796 Z M93.6304854,150.394853 L182.629074,101.476351 L271.627663,150.394853 L182.629074,201.771097 L93.6304854,150.394853 L93.6304854,150.394853 Z" id="Shape" fill="#1C78C0"></path>
                <path d="M550.297699,272.383891 L589.290708,272.383891 L629.039945,139.949454 L591.039485,139.949454 L567.501887,233.910789 L542.404569,139.949454 L509.508649,139.949454 L484.175009,233.910789 L460.873732,139.949454 L422.873273,139.949454 L462.386188,272.383891 L501.379197,272.383891 L525.956609,187.544556 L550.297699,272.383891 Z M631.072308,206.544786 C631.072308,246.294023 658.154725,275.692388 700.739817,275.692388 C733.683001,275.692388 751.407096,255.935931 756.464371,246.577609 L733.399416,229.089835 C729.618276,234.667017 719.22014,245.301474 701.212459,245.301474 C681.692323,245.301474 667.513047,232.634654 666.756819,214.910559 L760.00919,214.910559 C760.245512,212.358289 760.245512,209.853284 760.245512,207.301014 C760.245512,164.006958 736.944235,136.640956 695.918863,136.640956 C658.154725,136.640956 631.072308,166.511964 631.072308,206.544786 L631.072308,206.544786 Z M667.796632,192.081925 C669.309089,176.910099 679.943545,165.235829 696.43877,165.235829 C712.414087,165.235829 724.041094,175.870286 724.797322,192.081925 L667.796632,192.081925 Z M773.432238,272.383891 L806.375423,272.383891 L806.375423,258.724522 C809.920242,263.025569 823.106968,275.692388 845.652017,275.692388 C883.652476,275.692388 910.498572,247.097515 910.498572,206.308465 C910.498572,165.283093 885.684839,136.68822 847.68438,136.68822 C824.90301,136.68822 811.716283,149.35504 808.407785,153.892408 L808.407785,89.2821742 L773.479502,89.2821742 L773.479502,272.383891 L773.432238,272.383891 Z M807.367972,206.544786 C807.367972,181.731053 822.067155,167.551777 841.303706,167.551777 C861.58007,167.551777 875.239439,183.527095 875.239439,206.544786 C875.239439,230.082384 861.060163,244.781567 841.303706,244.781567 C820.034792,244.781567 807.367972,227.530115 807.367972,206.544786 Z M924.110677,319.742672 L959.03896,319.742672 L959.03896,258.677257 C962.347458,262.978304 975.48692,275.645124 998.315555,275.645124 C1036.31601,275.645124 1061.12975,247.050251 1061.12975,206.024879 C1061.12975,165.519414 1034.28365,136.640956 996.283192,136.640956 C973.738143,136.640956 960.551416,149.307776 957.006597,153.845144 L957.006597,139.902189 L924.063413,139.902189 L924.063413,319.742672 L924.110677,319.742672 Z M958.046411,205.788558 C958.046411,184.755965 970.713231,167.551777 991.982145,167.551777 C1011.7386,167.551777 1025.91788,182.25096 1025.91788,205.788558 C1025.91788,228.853514 1012.25851,244.781567 991.982145,244.781567 C972.745594,244.781567 958.046411,230.602291 958.046411,205.788558 Z M1067.46316,231.358519 C1067.46316,259.197164 1090.24453,275.692388 1117.09062,275.692388 C1132.30971,275.692388 1142.42426,271.15502 1149.27758,263.781797 L1151.54626,272.383891 L1182.45708,272.383891 L1182.45708,188.537106 C1182.45708,158.902419 1169.79026,136.640956 1127.25244,136.640956 C1106.97607,136.640956 1086.98329,144.250501 1075.0727,152.332688 L1088.25943,176.153871 C1098.13766,171.096596 1110.28457,166.795549 1123.4713,166.795549 C1138.92671,166.795549 1147.5288,174.641415 1147.5288,186.315686 L1147.5288,194.91778 C1142.70785,191.609282 1132.30971,187.591821 1118.88666,187.591821 C1087.97584,187.544556 1067.46316,205.268651 1067.46316,231.358519 L1067.46316,231.358519 Z M1102.39144,230.318705 C1102.39144,219.447927 1111.74976,211.838383 1125.17281,211.838383 C1138.59586,211.838383 1148.23777,218.691699 1148.23777,230.318705 C1148.23777,241.473069 1138.59586,248.562707 1125.4564,248.562707 C1112.31693,248.562707 1102.39144,241.236748 1102.39144,230.318705 Z M1267.29642,244.781567 C1245.27128,244.781567 1229.57955,228.806249 1229.57955,206.308465 C1229.57955,185.039551 1243.5225,167.551777 1266.06755,167.551777 C1281.00305,167.551777 1291.16487,174.877737 1296.97837,180.218597 L1306.8566,150.820232 C1298.2545,144.250501 1284.54787,136.640956 1265.075,136.640956 C1224.80586,136.640956 1194.65126,166.275642 1194.65126,206.544786 C1194.65126,246.81393 1224.04963,275.692388 1265.31132,275.692388 C1284.54787,275.692388 1299.01073,267.610201 1306.57301,261.513113 L1297.21469,232.918239 C1291.35392,237.691929 1280.71947,244.781567 1267.29642,244.781567 L1267.29642,244.781567 Z M1319.71248,272.383891 L1354.64076,272.383891 L1354.64076,203.992516 L1398.97463,272.383891 L1440,272.383891 L1389.85263,199.927791 L1436.45518,139.902189 L1397.17859,139.902189 L1354.64076,195.626744 L1354.64076,89.2821742 L1319.71248,89.2821742 L1319.71248,272.383891 L1319.71248,272.383891 Z" id="Shape" fill="#FFFFFF"></path>
            </g>
        </g>
    </g>
</svg>